<mxfile host="app.diagrams.net" modified="2024-05-22T19:44:16.251Z" agent="Mozilla/5.0 (Windows NT 10.0; Win64; x64) AppleWebKit/537.36 (KHTML, like Gecko) Chrome/122.0.0.0 Safari/537.36" etag="7bP8RxJT1kOM5COUKUHp" version="24.4.4" type="device" pages="3">
  <diagram id="ZiJ1QPWtikxDmdyrKGaZ" name="use_case">
    <mxGraphModel dx="1390" dy="783" grid="1" gridSize="10" guides="1" tooltips="1" connect="1" arrows="1" fold="1" page="1" pageScale="1" pageWidth="850" pageHeight="1100" math="0" shadow="0">
      <root>
        <mxCell id="0" />
        <mxCell id="1" parent="0" />
        <mxCell id="GuArmlYnXHQYI5NAMh-S-20" value="" style="rounded=0;whiteSpace=wrap;html=1;" parent="1" vertex="1">
          <mxGeometry x="185" y="90" width="755" height="650" as="geometry" />
        </mxCell>
        <mxCell id="mLHjseE6QlHjcq5zer_h-10" value="" style="group" parent="1" vertex="1" connectable="0">
          <mxGeometry x="30" y="40" width="160" height="20" as="geometry" />
        </mxCell>
        <mxCell id="mLHjseE6QlHjcq5zer_h-8" value="" style="endArrow=open;dashed=1;endFill=0;endSize=12;html=1;" parent="mLHjseE6QlHjcq5zer_h-10" edge="1">
          <mxGeometry width="160" relative="1" as="geometry">
            <mxPoint y="20" as="sourcePoint" />
            <mxPoint x="160" y="20" as="targetPoint" />
          </mxGeometry>
        </mxCell>
        <mxCell id="mLHjseE6QlHjcq5zer_h-9" value="&amp;lt;&amp;lt;extend&amp;gt;&amp;gt;" style="text;html=1;align=center;verticalAlign=middle;resizable=0;points=[];autosize=1;" parent="mLHjseE6QlHjcq5zer_h-10" vertex="1">
          <mxGeometry x="45" width="80" height="20" as="geometry" />
        </mxCell>
        <mxCell id="mLHjseE6QlHjcq5zer_h-11" value="" style="group" parent="1" vertex="1" connectable="0">
          <mxGeometry x="260" y="40" width="160" height="20" as="geometry" />
        </mxCell>
        <mxCell id="mLHjseE6QlHjcq5zer_h-12" value="" style="endArrow=open;dashed=1;endFill=0;endSize=12;html=1;" parent="mLHjseE6QlHjcq5zer_h-11" edge="1">
          <mxGeometry width="160" relative="1" as="geometry">
            <mxPoint y="20" as="sourcePoint" />
            <mxPoint x="160" y="20" as="targetPoint" />
          </mxGeometry>
        </mxCell>
        <mxCell id="mLHjseE6QlHjcq5zer_h-13" value="&amp;lt;&amp;lt;include&amp;gt;&amp;gt;" style="text;html=1;align=center;verticalAlign=middle;resizable=0;points=[];autosize=1;" parent="mLHjseE6QlHjcq5zer_h-11" vertex="1">
          <mxGeometry x="45" width="80" height="20" as="geometry" />
        </mxCell>
        <mxCell id="mLHjseE6QlHjcq5zer_h-14" value="" style="endArrow=block;endFill=0;endSize=12;html=1;" parent="1" edge="1">
          <mxGeometry width="160" relative="1" as="geometry">
            <mxPoint x="480" y="59" as="sourcePoint" />
            <mxPoint x="640" y="59" as="targetPoint" />
          </mxGeometry>
        </mxCell>
        <mxCell id="mLHjseE6QlHjcq5zer_h-18" style="rounded=0;orthogonalLoop=1;jettySize=auto;html=1;entryX=0;entryY=0.5;entryDx=0;entryDy=0;endArrow=none;endFill=0;" parent="1" source="mLHjseE6QlHjcq5zer_h-16" target="mLHjseE6QlHjcq5zer_h-19" edge="1">
          <mxGeometry relative="1" as="geometry">
            <mxPoint x="210" y="330" as="targetPoint" />
          </mxGeometry>
        </mxCell>
        <mxCell id="mLHjseE6QlHjcq5zer_h-16" value="Manager" style="shape=umlActor;verticalLabelPosition=bottom;verticalAlign=top;html=1;" parent="1" vertex="1">
          <mxGeometry x="60" y="300" width="30" height="60" as="geometry" />
        </mxCell>
        <mxCell id="mLHjseE6QlHjcq5zer_h-19" value="View list employee" style="ellipse;whiteSpace=wrap;html=1;" parent="1" vertex="1">
          <mxGeometry x="220" y="295" width="140" height="70" as="geometry" />
        </mxCell>
        <mxCell id="mLHjseE6QlHjcq5zer_h-24" value="" style="group" parent="1" vertex="1" connectable="0">
          <mxGeometry x="400" y="150" width="210" height="80" as="geometry" />
        </mxCell>
        <mxCell id="mLHjseE6QlHjcq5zer_h-27" value="Login" style="ellipse;whiteSpace=wrap;html=1;strokeColor=#000000;" parent="mLHjseE6QlHjcq5zer_h-24" vertex="1">
          <mxGeometry x="140" width="140" height="70" as="geometry" />
        </mxCell>
        <mxCell id="mLHjseE6QlHjcq5zer_h-26" value="&amp;lt;&amp;lt;include&amp;gt;&amp;gt;" style="text;html=1;align=center;verticalAlign=middle;resizable=0;points=[];autosize=1;rotation=-32;" parent="1" vertex="1">
          <mxGeometry x="380" y="230" width="80" height="20" as="geometry" />
        </mxCell>
        <mxCell id="mLHjseE6QlHjcq5zer_h-28" value="Add employee" style="ellipse;whiteSpace=wrap;html=1;strokeColor=#000000;" parent="1" vertex="1">
          <mxGeometry x="530" y="500" width="140" height="70" as="geometry" />
        </mxCell>
        <mxCell id="mLHjseE6QlHjcq5zer_h-30" value="" style="endArrow=open;dashed=1;endFill=0;endSize=12;html=1;entryX=1;entryY=1;entryDx=0;entryDy=0;exitX=0;exitY=0.5;exitDx=0;exitDy=0;" parent="1" source="mLHjseE6QlHjcq5zer_h-28" target="mLHjseE6QlHjcq5zer_h-19" edge="1">
          <mxGeometry width="160" relative="1" as="geometry">
            <mxPoint x="320" y="410" as="sourcePoint" />
            <mxPoint x="480" y="410" as="targetPoint" />
          </mxGeometry>
        </mxCell>
        <mxCell id="mLHjseE6QlHjcq5zer_h-32" value="Update employee" style="ellipse;whiteSpace=wrap;html=1;strokeColor=#000000;" parent="1" vertex="1">
          <mxGeometry x="460" y="610" width="140" height="70" as="geometry" />
        </mxCell>
        <mxCell id="mLHjseE6QlHjcq5zer_h-35" value="" style="group;rotation=50;" parent="1" vertex="1" connectable="0">
          <mxGeometry x="300" y="451" width="160" height="20" as="geometry" />
        </mxCell>
        <mxCell id="mLHjseE6QlHjcq5zer_h-37" value="&amp;lt;&amp;lt;extend&amp;gt;&amp;gt;" style="text;html=1;align=center;verticalAlign=middle;resizable=0;points=[];autosize=1;rotation=50;" parent="mLHjseE6QlHjcq5zer_h-35" vertex="1">
          <mxGeometry x="49" y="12" width="80" height="20" as="geometry" />
        </mxCell>
        <mxCell id="mLHjseE6QlHjcq5zer_h-36" value="" style="endArrow=open;dashed=1;endFill=0;endSize=12;html=1;entryX=0.5;entryY=1;entryDx=0;entryDy=0;exitX=0;exitY=0;exitDx=0;exitDy=0;" parent="1" source="mLHjseE6QlHjcq5zer_h-32" target="mLHjseE6QlHjcq5zer_h-19" edge="1">
          <mxGeometry width="160" relative="1" as="geometry">
            <mxPoint x="310" y="460" as="sourcePoint" />
            <mxPoint x="470" y="460" as="targetPoint" />
          </mxGeometry>
        </mxCell>
        <mxCell id="mLHjseE6QlHjcq5zer_h-38" value="Delete employee" style="ellipse;whiteSpace=wrap;html=1;strokeColor=#000000;" parent="1" vertex="1">
          <mxGeometry x="300" y="620" width="140" height="70" as="geometry" />
        </mxCell>
        <mxCell id="mLHjseE6QlHjcq5zer_h-39" value="" style="endArrow=open;dashed=1;endFill=0;endSize=12;html=1;exitX=0;exitY=0;exitDx=0;exitDy=0;entryX=0.288;entryY=0.933;entryDx=0;entryDy=0;entryPerimeter=0;" parent="1" source="mLHjseE6QlHjcq5zer_h-38" target="mLHjseE6QlHjcq5zer_h-19" edge="1">
          <mxGeometry width="160" relative="1" as="geometry">
            <mxPoint x="500.5025253169417" y="490.25126265847086" as="sourcePoint" />
            <mxPoint x="290" y="360" as="targetPoint" />
          </mxGeometry>
        </mxCell>
        <mxCell id="mLHjseE6QlHjcq5zer_h-40" value="" style="group;rotation=75;" parent="1" vertex="1" connectable="0">
          <mxGeometry x="220" y="480" width="160" height="20" as="geometry" />
        </mxCell>
        <mxCell id="mLHjseE6QlHjcq5zer_h-41" value="&amp;lt;&amp;lt;extend&amp;gt;&amp;gt;" style="text;html=1;align=center;verticalAlign=middle;resizable=0;points=[];autosize=1;rotation=75;" parent="mLHjseE6QlHjcq5zer_h-40" vertex="1">
          <mxGeometry x="45" y="14" width="80" height="20" as="geometry" />
        </mxCell>
        <mxCell id="mLHjseE6QlHjcq5zer_h-42" value="" style="endArrow=block;endFill=0;endSize=12;html=1;entryX=0.986;entryY=0.386;entryDx=0;entryDy=0;entryPerimeter=0;" parent="1" source="mLHjseE6QlHjcq5zer_h-45" target="mLHjseE6QlHjcq5zer_h-27" edge="1">
          <mxGeometry width="160" relative="1" as="geometry">
            <mxPoint x="680" y="160" as="sourcePoint" />
            <mxPoint x="700" y="180" as="targetPoint" />
          </mxGeometry>
        </mxCell>
        <mxCell id="mLHjseE6QlHjcq5zer_h-43" value="" style="group" parent="1" vertex="1" connectable="0">
          <mxGeometry x="700" y="90" width="210" height="80" as="geometry" />
        </mxCell>
        <mxCell id="mLHjseE6QlHjcq5zer_h-45" value="Login by Facebook" style="ellipse;whiteSpace=wrap;html=1;strokeColor=#000000;" parent="mLHjseE6QlHjcq5zer_h-43" vertex="1">
          <mxGeometry x="70" y="10" width="140" height="70" as="geometry" />
        </mxCell>
        <mxCell id="mLHjseE6QlHjcq5zer_h-46" value="Login by Gmail" style="ellipse;whiteSpace=wrap;html=1;strokeColor=#000000;" parent="1" vertex="1">
          <mxGeometry x="770" y="180" width="140" height="70" as="geometry" />
        </mxCell>
        <mxCell id="5E4w11CoWnl0UhFc0yHq-4" value="Viewing List Employee Function" style="text;html=1;strokeColor=none;fillColor=none;align=center;verticalAlign=middle;whiteSpace=wrap;rounded=0;" parent="1" vertex="1">
          <mxGeometry x="180" y="80" width="190" height="50" as="geometry" />
        </mxCell>
        <mxCell id="mLHjseE6QlHjcq5zer_h-47" value="" style="endArrow=block;endFill=0;endSize=12;html=1;entryX=0.932;entryY=0.788;entryDx=0;entryDy=0;entryPerimeter=0;exitX=0;exitY=0.5;exitDx=0;exitDy=0;" parent="1" source="mLHjseE6QlHjcq5zer_h-46" target="mLHjseE6QlHjcq5zer_h-27" edge="1">
          <mxGeometry width="160" relative="1" as="geometry">
            <mxPoint x="730.9800000000012" y="276.98" as="sourcePoint" />
            <mxPoint x="620" y="270" as="targetPoint" />
          </mxGeometry>
        </mxCell>
        <mxCell id="mLHjseE6QlHjcq5zer_h-25" value="" style="endArrow=open;dashed=1;endFill=0;endSize=12;html=1;exitX=1;exitY=0;exitDx=0;exitDy=0;entryX=0;entryY=0.5;entryDx=0;entryDy=0;" parent="1" source="mLHjseE6QlHjcq5zer_h-19" target="mLHjseE6QlHjcq5zer_h-27" edge="1">
          <mxGeometry width="160" relative="1" as="geometry">
            <mxPoint x="360" y="180" as="sourcePoint" />
            <mxPoint x="430" y="210" as="targetPoint" />
          </mxGeometry>
        </mxCell>
        <mxCell id="GuArmlYnXHQYI5NAMh-S-1" value="Register employee account" style="ellipse;whiteSpace=wrap;html=1;strokeColor=#000000;" parent="1" vertex="1">
          <mxGeometry x="770" y="360" width="140" height="70" as="geometry" />
        </mxCell>
        <mxCell id="GuArmlYnXHQYI5NAMh-S-2" value="" style="endArrow=open;dashed=1;endFill=0;endSize=12;html=1;exitX=0;exitY=0.5;exitDx=0;exitDy=0;entryX=1;entryY=0.5;entryDx=0;entryDy=0;" parent="1" source="GuArmlYnXHQYI5NAMh-S-15" target="mLHjseE6QlHjcq5zer_h-19" edge="1">
          <mxGeometry width="160" relative="1" as="geometry">
            <mxPoint x="535" y="340" as="sourcePoint" />
            <mxPoint x="365" y="265" as="targetPoint" />
          </mxGeometry>
        </mxCell>
        <mxCell id="GuArmlYnXHQYI5NAMh-S-7" value="See employee details" style="ellipse;whiteSpace=wrap;html=1;strokeColor=#000000;" parent="1" vertex="1">
          <mxGeometry x="540" y="385" width="140" height="70" as="geometry" />
        </mxCell>
        <mxCell id="GuArmlYnXHQYI5NAMh-S-10" value="" style="endArrow=open;dashed=1;endFill=0;endSize=12;html=1;exitX=0;exitY=0.5;exitDx=0;exitDy=0;entryX=0.961;entryY=0.719;entryDx=0;entryDy=0;entryPerimeter=0;" parent="1" source="GuArmlYnXHQYI5NAMh-S-7" target="mLHjseE6QlHjcq5zer_h-19" edge="1">
          <mxGeometry width="160" relative="1" as="geometry">
            <mxPoint x="973.5" y="709.25" as="sourcePoint" />
            <mxPoint x="730.5" y="480.25" as="targetPoint" />
          </mxGeometry>
        </mxCell>
        <mxCell id="GuArmlYnXHQYI5NAMh-S-11" value="" style="group;rotation=45;" parent="1" vertex="1" connectable="0">
          <mxGeometry x="360" y="420" width="160" height="20" as="geometry" />
        </mxCell>
        <mxCell id="GuArmlYnXHQYI5NAMh-S-12" value="&amp;lt;&amp;lt;extend&amp;gt;&amp;gt;" style="text;html=1;align=center;verticalAlign=middle;resizable=0;points=[];autosize=1;rotation=45;" parent="GuArmlYnXHQYI5NAMh-S-11" vertex="1">
          <mxGeometry x="50" y="11" width="80" height="20" as="geometry" />
        </mxCell>
        <mxCell id="GuArmlYnXHQYI5NAMh-S-13" value="" style="group;rotation=20;" parent="1" vertex="1" connectable="0">
          <mxGeometry x="380" y="365" width="160" height="20" as="geometry" />
        </mxCell>
        <mxCell id="GuArmlYnXHQYI5NAMh-S-14" value="&amp;lt;&amp;lt;extend&amp;gt;&amp;gt;" style="text;html=1;align=center;verticalAlign=middle;resizable=0;points=[];autosize=1;rotation=20;" parent="GuArmlYnXHQYI5NAMh-S-13" vertex="1">
          <mxGeometry x="54" y="6" width="80" height="20" as="geometry" />
        </mxCell>
        <mxCell id="GuArmlYnXHQYI5NAMh-S-15" value="Check employee account" style="ellipse;whiteSpace=wrap;html=1;strokeColor=#000000;" parent="1" vertex="1">
          <mxGeometry x="540" y="260" width="140" height="70" as="geometry" />
        </mxCell>
        <mxCell id="GuArmlYnXHQYI5NAMh-S-16" value="" style="endArrow=open;dashed=1;endFill=0;endSize=12;html=1;entryX=1;entryY=0.5;entryDx=0;entryDy=0;exitX=0;exitY=0.5;exitDx=0;exitDy=0;" parent="1" source="GuArmlYnXHQYI5NAMh-S-1" target="GuArmlYnXHQYI5NAMh-S-15" edge="1">
          <mxGeometry width="160" relative="1" as="geometry">
            <mxPoint x="860.5" y="570.25" as="sourcePoint" />
            <mxPoint x="649.5" y="420.25" as="targetPoint" />
          </mxGeometry>
        </mxCell>
        <mxCell id="GuArmlYnXHQYI5NAMh-S-17" value="" style="group;rotation=45;" parent="1" vertex="1" connectable="0">
          <mxGeometry x="640" y="310" width="160" height="20" as="geometry" />
        </mxCell>
        <mxCell id="GuArmlYnXHQYI5NAMh-S-18" value="&amp;lt;&amp;lt;extend&amp;gt;&amp;gt;" style="text;html=1;align=center;verticalAlign=middle;resizable=0;points=[];autosize=1;rotation=45;" parent="GuArmlYnXHQYI5NAMh-S-17" vertex="1">
          <mxGeometry x="50" y="10" width="80" height="20" as="geometry" />
        </mxCell>
        <mxCell id="GuArmlYnXHQYI5NAMh-S-19" value="&amp;lt;&amp;lt;include&amp;gt;&amp;gt;" style="text;html=1;align=center;verticalAlign=middle;resizable=0;points=[];autosize=1;rotation=-10;" parent="1" vertex="1">
          <mxGeometry x="413" y="290" width="80" height="20" as="geometry" />
        </mxCell>
        <mxCell id="GuArmlYnXHQYI5NAMh-S-21" value="View employee detail content" style="ellipse;whiteSpace=wrap;html=1;strokeColor=#000000;" parent="1" vertex="1">
          <mxGeometry x="760" y="500" width="140" height="70" as="geometry" />
        </mxCell>
        <mxCell id="GuArmlYnXHQYI5NAMh-S-22" value="" style="endArrow=open;dashed=1;endFill=0;endSize=12;html=1;exitX=0.02;exitY=0.338;exitDx=0;exitDy=0;exitPerimeter=0;entryX=1;entryY=0.5;entryDx=0;entryDy=0;" parent="1" source="GuArmlYnXHQYI5NAMh-S-21" target="GuArmlYnXHQYI5NAMh-S-7" edge="1">
          <mxGeometry width="160" relative="1" as="geometry">
            <mxPoint x="760" y="455" as="sourcePoint" />
            <mxPoint x="670" y="425" as="targetPoint" />
          </mxGeometry>
        </mxCell>
        <mxCell id="GuArmlYnXHQYI5NAMh-S-28" value="&amp;lt;&amp;lt;include&amp;gt;&amp;gt;" style="text;html=1;align=center;verticalAlign=middle;resizable=0;points=[];autosize=1;rotation=50;" parent="1" vertex="1">
          <mxGeometry x="700" y="455" width="80" height="20" as="geometry" />
        </mxCell>
        <mxCell id="1mGo-e381N0zfqJ2B2-z-1" value="Login by Account" style="ellipse;whiteSpace=wrap;html=1;strokeColor=#000000;" parent="1" vertex="1">
          <mxGeometry x="770" y="265" width="140" height="70" as="geometry" />
        </mxCell>
        <mxCell id="1mGo-e381N0zfqJ2B2-z-2" value="" style="endArrow=block;endFill=0;endSize=12;html=1;entryX=0.757;entryY=0.926;entryDx=0;entryDy=0;entryPerimeter=0;exitX=0.097;exitY=0.22;exitDx=0;exitDy=0;exitPerimeter=0;" parent="1" source="1mGo-e381N0zfqJ2B2-z-1" target="mLHjseE6QlHjcq5zer_h-27" edge="1">
          <mxGeometry width="160" relative="1" as="geometry">
            <mxPoint x="770" y="250" as="sourcePoint" />
            <mxPoint x="670" y="240" as="targetPoint" />
          </mxGeometry>
        </mxCell>
        <mxCell id="wCMHXzoT4N7P6AJ4wdgL-1" value="" style="rounded=0;whiteSpace=wrap;html=1;" vertex="1" parent="1">
          <mxGeometry x="1000" y="150" width="755" height="370" as="geometry" />
        </mxCell>
        <mxCell id="wCMHXzoT4N7P6AJ4wdgL-2" value="Manager" style="shape=umlActor;verticalLabelPosition=bottom;verticalAlign=top;html=1;" vertex="1" parent="1">
          <mxGeometry x="1060" y="300" width="30" height="60" as="geometry" />
        </mxCell>
        <mxCell id="wCMHXzoT4N7P6AJ4wdgL-3" value="View register account" style="ellipse;whiteSpace=wrap;html=1;" vertex="1" parent="1">
          <mxGeometry x="1170" y="295" width="140" height="70" as="geometry" />
        </mxCell>
        <mxCell id="wCMHXzoT4N7P6AJ4wdgL-4" style="rounded=0;orthogonalLoop=1;jettySize=auto;html=1;entryX=0;entryY=0.5;entryDx=0;entryDy=0;endArrow=none;endFill=0;" edge="1" parent="1" target="wCMHXzoT4N7P6AJ4wdgL-3">
          <mxGeometry relative="1" as="geometry">
            <mxPoint x="1220" y="330" as="targetPoint" />
            <mxPoint x="1100" y="330" as="sourcePoint" />
          </mxGeometry>
        </mxCell>
        <mxCell id="wCMHXzoT4N7P6AJ4wdgL-8" value="Validate" style="ellipse;whiteSpace=wrap;html=1;" vertex="1" parent="1">
          <mxGeometry x="1590" y="170" width="140" height="70" as="geometry" />
        </mxCell>
        <mxCell id="wCMHXzoT4N7P6AJ4wdgL-9" value="Enter fileds" style="ellipse;whiteSpace=wrap;html=1;" vertex="1" parent="1">
          <mxGeometry x="1600" y="420" width="140" height="70" as="geometry" />
        </mxCell>
        <mxCell id="wCMHXzoT4N7P6AJ4wdgL-11" value="Register account" style="ellipse;whiteSpace=wrap;html=1;" vertex="1" parent="1">
          <mxGeometry x="1400" y="295" width="140" height="70" as="geometry" />
        </mxCell>
        <mxCell id="wCMHXzoT4N7P6AJ4wdgL-15" value="" style="endArrow=open;dashed=1;endFill=0;endSize=12;html=1;entryX=1;entryY=0.5;entryDx=0;entryDy=0;exitX=0;exitY=0.5;exitDx=0;exitDy=0;" edge="1" parent="1" source="wCMHXzoT4N7P6AJ4wdgL-11" target="wCMHXzoT4N7P6AJ4wdgL-3">
          <mxGeometry width="160" relative="1" as="geometry">
            <mxPoint x="1380" y="280" as="sourcePoint" />
            <mxPoint x="1290" y="180" as="targetPoint" />
          </mxGeometry>
        </mxCell>
        <mxCell id="wCMHXzoT4N7P6AJ4wdgL-17" value="" style="group;rotation=0;" vertex="1" connectable="0" parent="1">
          <mxGeometry x="1270" y="300" width="160" height="20" as="geometry" />
        </mxCell>
        <mxCell id="wCMHXzoT4N7P6AJ4wdgL-18" value="&amp;lt;&amp;lt;extend&amp;gt;&amp;gt;" style="text;html=1;align=center;verticalAlign=middle;resizable=0;points=[];autosize=1;rotation=0;" vertex="1" parent="wCMHXzoT4N7P6AJ4wdgL-17">
          <mxGeometry x="54" width="80" height="20" as="geometry" />
        </mxCell>
        <mxCell id="wCMHXzoT4N7P6AJ4wdgL-19" value="" style="endArrow=open;dashed=1;endFill=0;endSize=12;html=1;exitX=1;exitY=0.5;exitDx=0;exitDy=0;entryX=0;entryY=0.5;entryDx=0;entryDy=0;" edge="1" parent="1" source="wCMHXzoT4N7P6AJ4wdgL-11" target="wCMHXzoT4N7P6AJ4wdgL-8">
          <mxGeometry width="160" relative="1" as="geometry">
            <mxPoint x="1580" y="310" as="sourcePoint" />
            <mxPoint x="1781" y="190" as="targetPoint" />
          </mxGeometry>
        </mxCell>
        <mxCell id="wCMHXzoT4N7P6AJ4wdgL-20" value="" style="endArrow=open;dashed=1;endFill=0;endSize=12;html=1;exitX=1;exitY=0.5;exitDx=0;exitDy=0;entryX=0;entryY=0.5;entryDx=0;entryDy=0;" edge="1" parent="1" source="wCMHXzoT4N7P6AJ4wdgL-11" target="wCMHXzoT4N7P6AJ4wdgL-9">
          <mxGeometry width="160" relative="1" as="geometry">
            <mxPoint x="1450" y="537.5" as="sourcePoint" />
            <mxPoint x="1490" y="442.5" as="targetPoint" />
          </mxGeometry>
        </mxCell>
        <mxCell id="wCMHXzoT4N7P6AJ4wdgL-21" value="&amp;lt;&amp;lt;include&amp;gt;&amp;gt;" style="text;html=1;align=center;verticalAlign=middle;resizable=0;points=[];autosize=1;rotation=-70;" vertex="1" parent="1">
          <mxGeometry x="1510" y="260" width="80" height="20" as="geometry" />
        </mxCell>
        <mxCell id="wCMHXzoT4N7P6AJ4wdgL-22" value="&amp;lt;&amp;lt;include&amp;gt;&amp;gt;" style="text;html=1;align=center;verticalAlign=middle;resizable=0;points=[];autosize=1;rotation=60;" vertex="1" parent="1">
          <mxGeometry x="1520" y="390" width="80" height="20" as="geometry" />
        </mxCell>
      </root>
    </mxGraphModel>
  </diagram>
  <diagram id="9_cdODH6DTNORhleOfV1" name="class_diagram">
    <mxGraphModel dx="1986" dy="1119" grid="1" gridSize="10" guides="1" tooltips="1" connect="1" arrows="1" fold="1" page="1" pageScale="1" pageWidth="827" pageHeight="1169" math="0" shadow="0">
      <root>
        <mxCell id="0" />
        <mxCell id="1" parent="0" />
        <object label="&lt;b&gt;Employee&lt;/b&gt;" id="nToj158WiI1iEY1h0unO-1">
          <mxCell style="swimlane;fontStyle=0;childLayout=stackLayout;horizontal=1;startSize=30;horizontalStack=0;resizeParent=1;resizeParentMax=0;resizeLast=0;collapsible=1;marginBottom=0;whiteSpace=wrap;html=1;" parent="1" vertex="1">
            <mxGeometry x="530" y="380" width="160" height="500" as="geometry">
              <mxRectangle x="120" y="130" width="90" height="30" as="alternateBounds" />
            </mxGeometry>
          </mxCell>
        </object>
        <mxCell id="nToj158WiI1iEY1h0unO-2" value="- id: Long" style="text;strokeColor=none;fillColor=none;align=left;verticalAlign=middle;spacingLeft=4;spacingRight=4;overflow=hidden;points=[[0,0.5],[1,0.5]];portConstraint=eastwest;rotatable=0;whiteSpace=wrap;html=1;" parent="nToj158WiI1iEY1h0unO-1" vertex="1">
          <mxGeometry y="30" width="160" height="30" as="geometry" />
        </mxCell>
        <mxCell id="MYnLXi7cYPSJdYGXbcTT-1" value="- code: String" style="text;strokeColor=none;fillColor=none;align=left;verticalAlign=middle;spacingLeft=4;spacingRight=4;overflow=hidden;points=[[0,0.5],[1,0.5]];portConstraint=eastwest;rotatable=0;whiteSpace=wrap;html=1;" vertex="1" parent="nToj158WiI1iEY1h0unO-1">
          <mxGeometry y="60" width="160" height="30" as="geometry" />
        </mxCell>
        <mxCell id="ckBnWNkUD241kVc8S9oA-14" value="- name: String" style="text;strokeColor=none;fillColor=none;align=left;verticalAlign=middle;spacingLeft=4;spacingRight=4;overflow=hidden;points=[[0,0.5],[1,0.5]];portConstraint=eastwest;rotatable=0;whiteSpace=wrap;html=1;" parent="nToj158WiI1iEY1h0unO-1" vertex="1">
          <mxGeometry y="90" width="160" height="30" as="geometry" />
        </mxCell>
        <mxCell id="ckBnWNkUD241kVc8S9oA-11" value="- dob: Date" style="text;strokeColor=none;fillColor=none;align=left;verticalAlign=middle;spacingLeft=4;spacingRight=4;overflow=hidden;points=[[0,0.5],[1,0.5]];portConstraint=eastwest;rotatable=0;whiteSpace=wrap;html=1;" parent="nToj158WiI1iEY1h0unO-1" vertex="1">
          <mxGeometry y="120" width="160" height="30" as="geometry" />
        </mxCell>
        <mxCell id="ckBnWNkUD241kVc8S9oA-15" value="- email: String" style="text;strokeColor=none;fillColor=none;align=left;verticalAlign=middle;spacingLeft=4;spacingRight=4;overflow=hidden;points=[[0,0.5],[1,0.5]];portConstraint=eastwest;rotatable=0;whiteSpace=wrap;html=1;" parent="nToj158WiI1iEY1h0unO-1" vertex="1">
          <mxGeometry y="150" width="160" height="30" as="geometry" />
        </mxCell>
        <mxCell id="nToj158WiI1iEY1h0unO-4" value="- phone: String" style="text;strokeColor=none;fillColor=none;align=left;verticalAlign=middle;spacingLeft=4;spacingRight=4;overflow=hidden;points=[[0,0.5],[1,0.5]];portConstraint=eastwest;rotatable=0;whiteSpace=wrap;html=1;" parent="nToj158WiI1iEY1h0unO-1" vertex="1">
          <mxGeometry y="180" width="160" height="30" as="geometry" />
        </mxCell>
        <mxCell id="ckBnWNkUD241kVc8S9oA-16" value="- gender: String" style="text;strokeColor=none;fillColor=none;align=left;verticalAlign=middle;spacingLeft=4;spacingRight=4;overflow=hidden;points=[[0,0.5],[1,0.5]];portConstraint=eastwest;rotatable=0;whiteSpace=wrap;html=1;" parent="nToj158WiI1iEY1h0unO-1" vertex="1">
          <mxGeometry y="210" width="160" height="30" as="geometry" />
        </mxCell>
        <mxCell id="ckBnWNkUD241kVc8S9oA-7" value="- address: String" style="text;strokeColor=none;fillColor=none;align=left;verticalAlign=middle;spacingLeft=4;spacingRight=4;overflow=hidden;points=[[0,0.5],[1,0.5]];portConstraint=eastwest;rotatable=0;whiteSpace=wrap;html=1;" parent="nToj158WiI1iEY1h0unO-1" vertex="1">
          <mxGeometry y="240" width="160" height="30" as="geometry" />
        </mxCell>
        <mxCell id="ckBnWNkUD241kVc8S9oA-9" value="- work_date: Date" style="text;strokeColor=none;fillColor=none;align=left;verticalAlign=middle;spacingLeft=4;spacingRight=4;overflow=hidden;points=[[0,0.5],[1,0.5]];portConstraint=eastwest;rotatable=0;whiteSpace=wrap;html=1;" parent="nToj158WiI1iEY1h0unO-1" vertex="1">
          <mxGeometry y="270" width="160" height="30" as="geometry" />
        </mxCell>
        <mxCell id="ckBnWNkUD241kVc8S9oA-10" value="- salary_rank: String" style="text;strokeColor=none;fillColor=none;align=left;verticalAlign=middle;spacingLeft=4;spacingRight=4;overflow=hidden;points=[[0,0.5],[1,0.5]];portConstraint=eastwest;rotatable=0;whiteSpace=wrap;html=1;" parent="nToj158WiI1iEY1h0unO-1" vertex="1">
          <mxGeometry y="300" width="160" height="30" as="geometry" />
        </mxCell>
        <mxCell id="ckBnWNkUD241kVc8S9oA-13" value="- is_deleted: boolean" style="text;strokeColor=none;fillColor=none;align=left;verticalAlign=middle;spacingLeft=4;spacingRight=4;overflow=hidden;points=[[0,0.5],[1,0.5]];portConstraint=eastwest;rotatable=0;whiteSpace=wrap;html=1;" parent="nToj158WiI1iEY1h0unO-1" vertex="1">
          <mxGeometry y="330" width="160" height="30" as="geometry" />
        </mxCell>
        <mxCell id="ckBnWNkUD241kVc8S9oA-8" value="- department: Department" style="text;strokeColor=none;fillColor=none;align=left;verticalAlign=middle;spacingLeft=4;spacingRight=4;overflow=hidden;points=[[0,0.5],[1,0.5]];portConstraint=eastwest;rotatable=0;whiteSpace=wrap;html=1;" parent="nToj158WiI1iEY1h0unO-1" vertex="1">
          <mxGeometry y="360" width="160" height="30" as="geometry" />
        </mxCell>
        <mxCell id="ckBnWNkUD241kVc8S9oA-6" value="- position: Position" style="text;strokeColor=none;fillColor=none;align=left;verticalAlign=middle;spacingLeft=4;spacingRight=4;overflow=hidden;points=[[0,0.5],[1,0.5]];portConstraint=eastwest;rotatable=0;whiteSpace=wrap;html=1;" parent="nToj158WiI1iEY1h0unO-1" vertex="1">
          <mxGeometry y="390" width="160" height="30" as="geometry" />
        </mxCell>
        <mxCell id="MYnLXi7cYPSJdYGXbcTT-2" value="- account: Account" style="text;strokeColor=none;fillColor=none;align=left;verticalAlign=middle;spacingLeft=4;spacingRight=4;overflow=hidden;points=[[0,0.5],[1,0.5]];portConstraint=eastwest;rotatable=0;whiteSpace=wrap;html=1;" vertex="1" parent="nToj158WiI1iEY1h0unO-1">
          <mxGeometry y="420" width="160" height="30" as="geometry" />
        </mxCell>
        <mxCell id="MYnLXi7cYPSJdYGXbcTT-5" value="&lt;div&gt;+ Employee()&lt;/div&gt;+ Getter/Setter" style="text;strokeColor=default;fillColor=none;align=left;verticalAlign=middle;spacingLeft=4;spacingRight=4;overflow=hidden;points=[[0,0.5],[1,0.5]];portConstraint=eastwest;rotatable=0;whiteSpace=wrap;html=1;" vertex="1" parent="nToj158WiI1iEY1h0unO-1">
          <mxGeometry y="450" width="160" height="50" as="geometry" />
        </mxCell>
        <object label="EmployeeController" id="ckBnWNkUD241kVc8S9oA-17">
          <mxCell style="swimlane;fontStyle=1;childLayout=stackLayout;horizontal=1;startSize=30;horizontalStack=0;resizeParent=1;resizeParentMax=0;resizeLast=0;collapsible=1;marginBottom=0;whiteSpace=wrap;html=1;" parent="1" vertex="1">
            <mxGeometry x="100" y="70" width="230" height="210" as="geometry">
              <mxRectangle x="120" y="130" width="90" height="30" as="alternateBounds" />
            </mxGeometry>
          </mxCell>
        </object>
        <mxCell id="ckBnWNkUD241kVc8S9oA-18" value="- employeeService: EmployeeService" style="text;strokeColor=default;fillColor=none;align=left;verticalAlign=middle;spacingLeft=4;spacingRight=4;overflow=hidden;points=[[0,0.5],[1,0.5]];portConstraint=eastwest;rotatable=0;whiteSpace=wrap;html=1;" parent="ckBnWNkUD241kVc8S9oA-17" vertex="1">
          <mxGeometry y="30" width="230" height="30" as="geometry" />
        </mxCell>
        <mxCell id="ckBnWNkUD241kVc8S9oA-19" value="+ getAllEmployee(): List&amp;lt;Employee&amp;gt;" style="text;strokeColor=none;fillColor=none;align=left;verticalAlign=middle;spacingLeft=4;spacingRight=4;overflow=hidden;points=[[0,0.5],[1,0.5]];portConstraint=eastwest;rotatable=0;whiteSpace=wrap;html=1;" parent="ckBnWNkUD241kVc8S9oA-17" vertex="1">
          <mxGeometry y="60" width="230" height="30" as="geometry" />
        </mxCell>
        <mxCell id="ckBnWNkUD241kVc8S9oA-20" value="+ getEmployeeById(): Employee" style="text;strokeColor=none;fillColor=none;align=left;verticalAlign=middle;spacingLeft=4;spacingRight=4;overflow=hidden;points=[[0,0.5],[1,0.5]];portConstraint=eastwest;rotatable=0;whiteSpace=wrap;html=1;" parent="ckBnWNkUD241kVc8S9oA-17" vertex="1">
          <mxGeometry y="90" width="230" height="30" as="geometry" />
        </mxCell>
        <mxCell id="ckBnWNkUD241kVc8S9oA-21" value="+ createEmployee(): void" style="text;strokeColor=none;fillColor=none;align=left;verticalAlign=middle;spacingLeft=4;spacingRight=4;overflow=hidden;points=[[0,0.5],[1,0.5]];portConstraint=eastwest;rotatable=0;whiteSpace=wrap;html=1;" parent="ckBnWNkUD241kVc8S9oA-17" vertex="1">
          <mxGeometry y="120" width="230" height="30" as="geometry" />
        </mxCell>
        <mxCell id="ckBnWNkUD241kVc8S9oA-22" value="+ editEmployee(): void" style="text;strokeColor=none;fillColor=none;align=left;verticalAlign=middle;spacingLeft=4;spacingRight=4;overflow=hidden;points=[[0,0.5],[1,0.5]];portConstraint=eastwest;rotatable=0;whiteSpace=wrap;html=1;" parent="ckBnWNkUD241kVc8S9oA-17" vertex="1">
          <mxGeometry y="150" width="230" height="30" as="geometry" />
        </mxCell>
        <mxCell id="ckBnWNkUD241kVc8S9oA-23" value="+ deleteEmployee(): void" style="text;strokeColor=none;fillColor=none;align=left;verticalAlign=middle;spacingLeft=4;spacingRight=4;overflow=hidden;points=[[0,0.5],[1,0.5]];portConstraint=eastwest;rotatable=0;whiteSpace=wrap;html=1;" parent="ckBnWNkUD241kVc8S9oA-17" vertex="1">
          <mxGeometry y="180" width="230" height="30" as="geometry" />
        </mxCell>
        <mxCell id="HcN8W_5jkTyQGjEK0P02-1" value="" style="endArrow=diamondThin;endFill=1;endSize=24;html=1;rounded=0;entryX=0.475;entryY=1.013;entryDx=0;entryDy=0;entryPerimeter=0;exitX=0.475;exitY=0.006;exitDx=0;exitDy=0;exitPerimeter=0;" parent="1" source="HcN8W_5jkTyQGjEK0P02-2" target="ckBnWNkUD241kVc8S9oA-23" edge="1">
          <mxGeometry width="160" relative="1" as="geometry">
            <mxPoint x="210" y="380" as="sourcePoint" />
            <mxPoint x="210" y="290" as="targetPoint" />
          </mxGeometry>
        </mxCell>
        <mxCell id="HcN8W_5jkTyQGjEK0P02-9" value="owns" style="edgeLabel;html=1;align=center;verticalAlign=middle;resizable=0;points=[];" parent="HcN8W_5jkTyQGjEK0P02-1" vertex="1" connectable="0">
          <mxGeometry x="-0.1139" y="-2" relative="1" as="geometry">
            <mxPoint x="-21" as="offset" />
          </mxGeometry>
        </mxCell>
        <object label="&lt;div&gt;&lt;span style=&quot;font-weight: normal;&quot;&gt;&amp;lt;&amp;lt;interface&amp;gt;&amp;gt;&lt;/span&gt;&lt;/div&gt;EmployeeService" id="HcN8W_5jkTyQGjEK0P02-2">
          <mxCell style="swimlane;fontStyle=1;childLayout=stackLayout;horizontal=1;startSize=30;horizontalStack=0;resizeParent=1;resizeParentMax=0;resizeLast=0;collapsible=1;marginBottom=0;whiteSpace=wrap;html=1;" parent="1" vertex="1">
            <mxGeometry x="100" y="370" width="230" height="150" as="geometry">
              <mxRectangle x="120" y="130" width="90" height="30" as="alternateBounds" />
            </mxGeometry>
          </mxCell>
        </object>
        <mxCell id="HcN8W_5jkTyQGjEK0P02-3" value="+ findAllEmployee(): List&amp;lt;Employee&amp;gt;" style="text;strokeColor=none;fillColor=none;align=left;verticalAlign=middle;spacingLeft=4;spacingRight=4;overflow=hidden;points=[[0,0.5],[1,0.5]];portConstraint=eastwest;rotatable=0;whiteSpace=wrap;html=1;" parent="HcN8W_5jkTyQGjEK0P02-2" vertex="1">
          <mxGeometry y="30" width="230" height="30" as="geometry" />
        </mxCell>
        <mxCell id="HcN8W_5jkTyQGjEK0P02-4" value="+ findEmployeeById(): Employee" style="text;strokeColor=none;fillColor=none;align=left;verticalAlign=middle;spacingLeft=4;spacingRight=4;overflow=hidden;points=[[0,0.5],[1,0.5]];portConstraint=eastwest;rotatable=0;whiteSpace=wrap;html=1;" parent="HcN8W_5jkTyQGjEK0P02-2" vertex="1">
          <mxGeometry y="60" width="230" height="30" as="geometry" />
        </mxCell>
        <mxCell id="HcN8W_5jkTyQGjEK0P02-5" value="+ saveEmployee(): void" style="text;strokeColor=none;fillColor=none;align=left;verticalAlign=middle;spacingLeft=4;spacingRight=4;overflow=hidden;points=[[0,0.5],[1,0.5]];portConstraint=eastwest;rotatable=0;whiteSpace=wrap;html=1;" parent="HcN8W_5jkTyQGjEK0P02-2" vertex="1">
          <mxGeometry y="90" width="230" height="30" as="geometry" />
        </mxCell>
        <mxCell id="HcN8W_5jkTyQGjEK0P02-6" value="+ deleteEmployee(): void" style="text;strokeColor=none;fillColor=none;align=left;verticalAlign=middle;spacingLeft=4;spacingRight=4;overflow=hidden;points=[[0,0.5],[1,0.5]];portConstraint=eastwest;rotatable=0;whiteSpace=wrap;html=1;" parent="HcN8W_5jkTyQGjEK0P02-2" vertex="1">
          <mxGeometry y="120" width="230" height="30" as="geometry" />
        </mxCell>
        <object label="&lt;div&gt;&lt;span style=&quot;background-color: initial;&quot;&gt;EmployeeServiceImpl&lt;/span&gt;&lt;br&gt;&lt;/div&gt;" id="HcN8W_5jkTyQGjEK0P02-10">
          <mxCell style="swimlane;fontStyle=1;childLayout=stackLayout;horizontal=1;startSize=30;horizontalStack=0;resizeParent=1;resizeParentMax=0;resizeLast=0;collapsible=1;marginBottom=0;whiteSpace=wrap;html=1;" parent="1" vertex="1">
            <mxGeometry x="100" y="594" width="270" height="180" as="geometry">
              <mxRectangle x="98" y="594" width="90" height="30" as="alternateBounds" />
            </mxGeometry>
          </mxCell>
        </object>
        <mxCell id="HcN8W_5jkTyQGjEK0P02-11" value="- employeeRepository: EmployeeRepository" style="text;strokeColor=default;fillColor=none;align=left;verticalAlign=middle;spacingLeft=4;spacingRight=4;overflow=hidden;points=[[0,0.5],[1,0.5]];portConstraint=eastwest;rotatable=0;whiteSpace=wrap;html=1;" parent="HcN8W_5jkTyQGjEK0P02-10" vertex="1">
          <mxGeometry y="30" width="270" height="30" as="geometry" />
        </mxCell>
        <mxCell id="HcN8W_5jkTyQGjEK0P02-18" value="+ findAllEmployee(): List&amp;lt;Employee&amp;gt;" style="text;strokeColor=none;fillColor=none;align=left;verticalAlign=middle;spacingLeft=4;spacingRight=4;overflow=hidden;points=[[0,0.5],[1,0.5]];portConstraint=eastwest;rotatable=0;whiteSpace=wrap;html=1;" parent="HcN8W_5jkTyQGjEK0P02-10" vertex="1">
          <mxGeometry y="60" width="270" height="30" as="geometry" />
        </mxCell>
        <mxCell id="HcN8W_5jkTyQGjEK0P02-12" value="+ findEmployeeById(): Employee" style="text;strokeColor=none;fillColor=none;align=left;verticalAlign=middle;spacingLeft=4;spacingRight=4;overflow=hidden;points=[[0,0.5],[1,0.5]];portConstraint=eastwest;rotatable=0;whiteSpace=wrap;html=1;" parent="HcN8W_5jkTyQGjEK0P02-10" vertex="1">
          <mxGeometry y="90" width="270" height="30" as="geometry" />
        </mxCell>
        <mxCell id="HcN8W_5jkTyQGjEK0P02-13" value="+ saveEmployee(): void" style="text;strokeColor=none;fillColor=none;align=left;verticalAlign=middle;spacingLeft=4;spacingRight=4;overflow=hidden;points=[[0,0.5],[1,0.5]];portConstraint=eastwest;rotatable=0;whiteSpace=wrap;html=1;" parent="HcN8W_5jkTyQGjEK0P02-10" vertex="1">
          <mxGeometry y="120" width="270" height="30" as="geometry" />
        </mxCell>
        <mxCell id="HcN8W_5jkTyQGjEK0P02-14" value="+ deleteEmployee(): void" style="text;strokeColor=none;fillColor=none;align=left;verticalAlign=middle;spacingLeft=4;spacingRight=4;overflow=hidden;points=[[0,0.5],[1,0.5]];portConstraint=eastwest;rotatable=0;whiteSpace=wrap;html=1;" parent="HcN8W_5jkTyQGjEK0P02-10" vertex="1">
          <mxGeometry y="150" width="270" height="30" as="geometry" />
        </mxCell>
        <mxCell id="HcN8W_5jkTyQGjEK0P02-15" value="" style="endArrow=block;dashed=1;endFill=0;endSize=12;html=1;rounded=0;entryX=0.5;entryY=1;entryDx=0;entryDy=0;exitX=0.428;exitY=0.007;exitDx=0;exitDy=0;exitPerimeter=0;" parent="1" source="HcN8W_5jkTyQGjEK0P02-10" target="HcN8W_5jkTyQGjEK0P02-2" edge="1">
          <mxGeometry width="160" relative="1" as="geometry">
            <mxPoint x="240" y="560" as="sourcePoint" />
            <mxPoint x="230" y="540" as="targetPoint" />
          </mxGeometry>
        </mxCell>
        <mxCell id="HcN8W_5jkTyQGjEK0P02-16" value="realizes" style="edgeLabel;html=1;align=center;verticalAlign=middle;resizable=0;points=[];" parent="HcN8W_5jkTyQGjEK0P02-15" vertex="1" connectable="0">
          <mxGeometry x="-0.027" y="4" relative="1" as="geometry">
            <mxPoint x="-20" as="offset" />
          </mxGeometry>
        </mxCell>
        <mxCell id="HcN8W_5jkTyQGjEK0P02-21" value="" style="endArrow=diamondThin;endFill=1;endSize=24;html=1;rounded=0;entryX=0.5;entryY=1;entryDx=0;entryDy=0;exitX=0.5;exitY=0;exitDx=0;exitDy=0;" parent="1" source="HcN8W_5jkTyQGjEK0P02-23" target="HcN8W_5jkTyQGjEK0P02-10" edge="1">
          <mxGeometry width="160" relative="1" as="geometry">
            <mxPoint x="248" y="840" as="sourcePoint" />
            <mxPoint x="243" y="774" as="targetPoint" />
          </mxGeometry>
        </mxCell>
        <mxCell id="HcN8W_5jkTyQGjEK0P02-22" value="owns" style="edgeLabel;html=1;align=center;verticalAlign=middle;resizable=0;points=[];" parent="HcN8W_5jkTyQGjEK0P02-21" vertex="1" connectable="0">
          <mxGeometry x="-0.1139" y="-2" relative="1" as="geometry">
            <mxPoint x="-21" as="offset" />
          </mxGeometry>
        </mxCell>
        <object label="&lt;div&gt;&lt;span style=&quot;background-color: initial; font-weight: normal;&quot;&gt;&amp;lt;&amp;lt;interface&amp;gt;&amp;gt;&lt;/span&gt;&lt;/div&gt;&lt;div&gt;EmployeeRepository &amp;lt;Employee, Long&amp;gt;&lt;/div&gt;" id="HcN8W_5jkTyQGjEK0P02-23">
          <mxCell style="swimlane;fontStyle=1;childLayout=stackLayout;horizontal=1;startSize=30;horizontalStack=0;resizeParent=1;resizeParentMax=0;resizeLast=0;collapsible=1;marginBottom=0;whiteSpace=wrap;html=1;" parent="1" vertex="1">
            <mxGeometry x="100" y="840" width="270" height="60" as="geometry">
              <mxRectangle x="100" y="594" width="90" height="30" as="alternateBounds" />
            </mxGeometry>
          </mxCell>
        </object>
        <mxCell id="MYnLXi7cYPSJdYGXbcTT-8" value="uses" style="endArrow=open;endSize=12;dashed=1;html=1;rounded=0;exitX=1;exitY=0.5;exitDx=0;exitDy=0;entryX=0.006;entryY=0.147;entryDx=0;entryDy=0;entryPerimeter=0;" edge="1" parent="1" source="HcN8W_5jkTyQGjEK0P02-4" target="MYnLXi7cYPSJdYGXbcTT-1">
          <mxGeometry x="0.0083" y="14" width="160" relative="1" as="geometry">
            <mxPoint x="340" y="444.5" as="sourcePoint" />
            <mxPoint x="500" y="444.5" as="targetPoint" />
            <mxPoint as="offset" />
          </mxGeometry>
        </mxCell>
        <mxCell id="MYnLXi7cYPSJdYGXbcTT-9" value="uses" style="endArrow=open;endSize=12;dashed=1;html=1;rounded=0;exitX=1.014;exitY=-0.181;exitDx=0;exitDy=0;exitPerimeter=0;entryX=0;entryY=0.952;entryDx=0;entryDy=0;entryPerimeter=0;" edge="1" parent="1" source="HcN8W_5jkTyQGjEK0P02-12" target="ckBnWNkUD241kVc8S9oA-9">
          <mxGeometry x="0.0083" y="14" width="160" relative="1" as="geometry">
            <mxPoint x="380" y="683.29" as="sourcePoint" />
            <mxPoint x="440" y="560" as="targetPoint" />
            <mxPoint as="offset" />
          </mxGeometry>
        </mxCell>
        <mxCell id="MYnLXi7cYPSJdYGXbcTT-10" value="uses" style="endArrow=open;endSize=12;dashed=1;html=1;rounded=0;exitX=1.014;exitY=-0.181;exitDx=0;exitDy=0;exitPerimeter=0;entryX=0.003;entryY=0.44;entryDx=0;entryDy=0;entryPerimeter=0;" edge="1" parent="1" target="MYnLXi7cYPSJdYGXbcTT-5">
          <mxGeometry x="0.0083" y="14" width="160" relative="1" as="geometry">
            <mxPoint x="370.22" y="850.4300000000001" as="sourcePoint" />
            <mxPoint x="470" y="860" as="targetPoint" />
            <mxPoint as="offset" />
          </mxGeometry>
        </mxCell>
        <object label="&lt;div&gt;&lt;span style=&quot;background-color: initial; font-weight: normal;&quot;&gt;&amp;lt;&amp;lt;interface&amp;gt;&amp;gt;&lt;/span&gt;&lt;/div&gt;&lt;div&gt;JpaRepository&lt;/div&gt;" id="MYnLXi7cYPSJdYGXbcTT-11">
          <mxCell style="swimlane;fontStyle=1;childLayout=stackLayout;horizontal=1;startSize=30;horizontalStack=0;resizeParent=1;resizeParentMax=0;resizeLast=0;collapsible=1;marginBottom=0;whiteSpace=wrap;html=1;" vertex="1" parent="1">
            <mxGeometry x="660" y="1220" width="270" height="60" as="geometry">
              <mxRectangle x="100" y="594" width="90" height="30" as="alternateBounds" />
            </mxGeometry>
          </mxCell>
        </object>
        <mxCell id="MYnLXi7cYPSJdYGXbcTT-12" value="" style="endArrow=open;endFill=1;endSize=12;html=1;rounded=0;entryX=0;entryY=0;entryDx=0;entryDy=0;exitX=0.5;exitY=1;exitDx=0;exitDy=0;" edge="1" parent="1" source="HcN8W_5jkTyQGjEK0P02-23" target="MYnLXi7cYPSJdYGXbcTT-11">
          <mxGeometry width="160" relative="1" as="geometry">
            <mxPoint x="90" y="980" as="sourcePoint" />
            <mxPoint x="250" y="980" as="targetPoint" />
          </mxGeometry>
        </mxCell>
        <mxCell id="MYnLXi7cYPSJdYGXbcTT-13" value="is" style="edgeLabel;html=1;align=center;verticalAlign=middle;resizable=0;points=[];" vertex="1" connectable="0" parent="MYnLXi7cYPSJdYGXbcTT-12">
          <mxGeometry x="-0.1543" y="-3" relative="1" as="geometry">
            <mxPoint x="-6" y="4" as="offset" />
          </mxGeometry>
        </mxCell>
        <object label="&lt;div&gt;&lt;span style=&quot;background-color: initial;&quot;&gt;Account&lt;/span&gt;&lt;br&gt;&lt;/div&gt;" id="MYnLXi7cYPSJdYGXbcTT-14">
          <mxCell style="swimlane;fontStyle=1;childLayout=stackLayout;horizontal=1;startSize=30;horizontalStack=0;resizeParent=1;resizeParentMax=0;resizeLast=0;collapsible=1;marginBottom=0;whiteSpace=wrap;html=1;" vertex="1" parent="1">
            <mxGeometry x="770" y="560" width="270" height="180" as="geometry">
              <mxRectangle x="770" y="560" width="90" height="30" as="alternateBounds" />
            </mxGeometry>
          </mxCell>
        </object>
        <mxCell id="MYnLXi7cYPSJdYGXbcTT-15" value="- id: Long" style="text;strokeColor=none;fillColor=none;align=left;verticalAlign=middle;spacingLeft=4;spacingRight=4;overflow=hidden;points=[[0,0.5],[1,0.5]];portConstraint=eastwest;rotatable=0;whiteSpace=wrap;html=1;" vertex="1" parent="MYnLXi7cYPSJdYGXbcTT-14">
          <mxGeometry y="30" width="270" height="30" as="geometry" />
        </mxCell>
        <mxCell id="MYnLXi7cYPSJdYGXbcTT-16" value="- username: String" style="text;strokeColor=none;fillColor=none;align=left;verticalAlign=middle;spacingLeft=4;spacingRight=4;overflow=hidden;points=[[0,0.5],[1,0.5]];portConstraint=eastwest;rotatable=0;whiteSpace=wrap;html=1;" vertex="1" parent="MYnLXi7cYPSJdYGXbcTT-14">
          <mxGeometry y="60" width="270" height="30" as="geometry" />
        </mxCell>
        <mxCell id="MYnLXi7cYPSJdYGXbcTT-17" value="- password: String" style="text;strokeColor=none;fillColor=none;align=left;verticalAlign=middle;spacingLeft=4;spacingRight=4;overflow=hidden;points=[[0,0.5],[1,0.5]];portConstraint=eastwest;rotatable=0;whiteSpace=wrap;html=1;" vertex="1" parent="MYnLXi7cYPSJdYGXbcTT-14">
          <mxGeometry y="90" width="270" height="30" as="geometry" />
        </mxCell>
        <mxCell id="MYnLXi7cYPSJdYGXbcTT-18" value="- roles: Set&amp;lt;Role&amp;gt;" style="text;strokeColor=none;fillColor=none;align=left;verticalAlign=middle;spacingLeft=4;spacingRight=4;overflow=hidden;points=[[0,0.5],[1,0.5]];portConstraint=eastwest;rotatable=0;whiteSpace=wrap;html=1;" vertex="1" parent="MYnLXi7cYPSJdYGXbcTT-14">
          <mxGeometry y="120" width="270" height="30" as="geometry" />
        </mxCell>
        <mxCell id="MYnLXi7cYPSJdYGXbcTT-19" value="+ Getter/Setter" style="text;strokeColor=default;fillColor=none;align=left;verticalAlign=middle;spacingLeft=4;spacingRight=4;overflow=hidden;points=[[0,0.5],[1,0.5]];portConstraint=eastwest;rotatable=0;whiteSpace=wrap;html=1;" vertex="1" parent="MYnLXi7cYPSJdYGXbcTT-14">
          <mxGeometry y="150" width="270" height="30" as="geometry" />
        </mxCell>
        <mxCell id="MYnLXi7cYPSJdYGXbcTT-21" value="" style="endArrow=diamondThin;endFill=1;endSize=24;html=1;rounded=0;entryX=1;entryY=0.5;entryDx=0;entryDy=0;exitX=0;exitY=0.5;exitDx=0;exitDy=0;" edge="1" parent="1" source="MYnLXi7cYPSJdYGXbcTT-16" target="ckBnWNkUD241kVc8S9oA-7">
          <mxGeometry width="160" relative="1" as="geometry">
            <mxPoint x="940" y="840" as="sourcePoint" />
            <mxPoint x="940" y="774" as="targetPoint" />
          </mxGeometry>
        </mxCell>
        <mxCell id="MYnLXi7cYPSJdYGXbcTT-22" value="owns" style="edgeLabel;html=1;align=center;verticalAlign=middle;resizable=0;points=[];" vertex="1" connectable="0" parent="MYnLXi7cYPSJdYGXbcTT-21">
          <mxGeometry x="-0.1139" y="-2" relative="1" as="geometry">
            <mxPoint x="6" y="-9" as="offset" />
          </mxGeometry>
        </mxCell>
        <object label="AccountController" id="MYnLXi7cYPSJdYGXbcTT-23">
          <mxCell style="swimlane;fontStyle=1;childLayout=stackLayout;horizontal=1;startSize=30;horizontalStack=0;resizeParent=1;resizeParentMax=0;resizeLast=0;collapsible=1;marginBottom=0;whiteSpace=wrap;html=1;" vertex="1" parent="1">
            <mxGeometry x="1170" y="40" width="230" height="90" as="geometry">
              <mxRectangle x="1170" y="40" width="90" height="30" as="alternateBounds" />
            </mxGeometry>
          </mxCell>
        </object>
        <mxCell id="MYnLXi7cYPSJdYGXbcTT-24" value="- accountService: AccountService" style="text;strokeColor=default;fillColor=none;align=left;verticalAlign=middle;spacingLeft=4;spacingRight=4;overflow=hidden;points=[[0,0.5],[1,0.5]];portConstraint=eastwest;rotatable=0;whiteSpace=wrap;html=1;" vertex="1" parent="MYnLXi7cYPSJdYGXbcTT-23">
          <mxGeometry y="30" width="230" height="30" as="geometry" />
        </mxCell>
        <mxCell id="MYnLXi7cYPSJdYGXbcTT-27" value="+ createEmployeeAccount(): void" style="text;strokeColor=none;fillColor=none;align=left;verticalAlign=middle;spacingLeft=4;spacingRight=4;overflow=hidden;points=[[0,0.5],[1,0.5]];portConstraint=eastwest;rotatable=0;whiteSpace=wrap;html=1;" vertex="1" parent="MYnLXi7cYPSJdYGXbcTT-23">
          <mxGeometry y="60" width="230" height="30" as="geometry" />
        </mxCell>
        <object label="&lt;div&gt;&lt;span style=&quot;font-weight: normal;&quot;&gt;&amp;lt;&amp;lt;interface&amp;gt;&amp;gt;&lt;/span&gt;&lt;/div&gt;AccountService" id="MYnLXi7cYPSJdYGXbcTT-30">
          <mxCell style="swimlane;fontStyle=1;childLayout=stackLayout;horizontal=1;startSize=30;horizontalStack=0;resizeParent=1;resizeParentMax=0;resizeLast=0;collapsible=1;marginBottom=0;whiteSpace=wrap;html=1;" vertex="1" parent="1">
            <mxGeometry x="1170" y="200" width="230" height="120" as="geometry">
              <mxRectangle x="1170" y="350" width="90" height="30" as="alternateBounds" />
            </mxGeometry>
          </mxCell>
        </object>
        <mxCell id="MYnLXi7cYPSJdYGXbcTT-33" value="+ saveAccount(): void" style="text;strokeColor=none;fillColor=none;align=left;verticalAlign=middle;spacingLeft=4;spacingRight=4;overflow=hidden;points=[[0,0.5],[1,0.5]];portConstraint=eastwest;rotatable=0;whiteSpace=wrap;html=1;" vertex="1" parent="MYnLXi7cYPSJdYGXbcTT-30">
          <mxGeometry y="30" width="230" height="30" as="geometry" />
        </mxCell>
        <mxCell id="sIXjIK7IF_1ghcyeQi1O-1" value="+ createEmployeeAccount(): String" style="text;strokeColor=none;fillColor=none;align=left;verticalAlign=middle;spacingLeft=4;spacingRight=4;overflow=hidden;points=[[0,0.5],[1,0.5]];portConstraint=eastwest;rotatable=0;whiteSpace=wrap;html=1;" vertex="1" parent="MYnLXi7cYPSJdYGXbcTT-30">
          <mxGeometry y="60" width="230" height="30" as="geometry" />
        </mxCell>
        <mxCell id="KfNUmDYbS8khww_SVkWS-1" value="+ findByUsername(): Account" style="text;strokeColor=none;fillColor=none;align=left;verticalAlign=middle;spacingLeft=4;spacingRight=4;overflow=hidden;points=[[0,0.5],[1,0.5]];portConstraint=eastwest;rotatable=0;whiteSpace=wrap;html=1;" vertex="1" parent="MYnLXi7cYPSJdYGXbcTT-30">
          <mxGeometry y="90" width="230" height="30" as="geometry" />
        </mxCell>
        <object label="&lt;div&gt;&lt;span style=&quot;background-color: initial;&quot;&gt;AccountServiceImpl&lt;/span&gt;&lt;br&gt;&lt;/div&gt;" id="MYnLXi7cYPSJdYGXbcTT-41">
          <mxCell style="swimlane;fontStyle=1;childLayout=stackLayout;horizontal=1;startSize=30;horizontalStack=0;resizeParent=1;resizeParentMax=0;resizeLast=0;collapsible=1;marginBottom=0;whiteSpace=wrap;html=1;" vertex="1" parent="1">
            <mxGeometry x="1170" y="390" width="250" height="180" as="geometry">
              <mxRectangle x="1170" y="540" width="90" height="30" as="alternateBounds" />
            </mxGeometry>
          </mxCell>
        </object>
        <mxCell id="MYnLXi7cYPSJdYGXbcTT-46" value="- accountRepository: AccountRepository&lt;div&gt;- employeeRepository: EmployeeRepository&lt;br&gt;&lt;/div&gt;" style="text;strokeColor=default;fillColor=none;align=left;verticalAlign=middle;spacingLeft=4;spacingRight=4;overflow=hidden;points=[[0,0.5],[1,0.5]];portConstraint=eastwest;rotatable=0;whiteSpace=wrap;html=1;" vertex="1" parent="MYnLXi7cYPSJdYGXbcTT-41">
          <mxGeometry y="30" width="250" height="60" as="geometry" />
        </mxCell>
        <mxCell id="MYnLXi7cYPSJdYGXbcTT-44" value="+ saveAccount(): void" style="text;strokeColor=none;fillColor=none;align=left;verticalAlign=middle;spacingLeft=4;spacingRight=4;overflow=hidden;points=[[0,0.5],[1,0.5]];portConstraint=eastwest;rotatable=0;whiteSpace=wrap;html=1;" vertex="1" parent="MYnLXi7cYPSJdYGXbcTT-41">
          <mxGeometry y="90" width="250" height="30" as="geometry" />
        </mxCell>
        <mxCell id="sIXjIK7IF_1ghcyeQi1O-5" value="+ createEmployeeAccount(): String" style="text;strokeColor=none;fillColor=none;align=left;verticalAlign=middle;spacingLeft=4;spacingRight=4;overflow=hidden;points=[[0,0.5],[1,0.5]];portConstraint=eastwest;rotatable=0;whiteSpace=wrap;html=1;" vertex="1" parent="MYnLXi7cYPSJdYGXbcTT-41">
          <mxGeometry y="120" width="250" height="30" as="geometry" />
        </mxCell>
        <mxCell id="KfNUmDYbS8khww_SVkWS-2" value="+ findByUsername(): Account" style="text;strokeColor=none;fillColor=none;align=left;verticalAlign=middle;spacingLeft=4;spacingRight=4;overflow=hidden;points=[[0,0.5],[1,0.5]];portConstraint=eastwest;rotatable=0;whiteSpace=wrap;html=1;" vertex="1" parent="MYnLXi7cYPSJdYGXbcTT-41">
          <mxGeometry y="150" width="250" height="30" as="geometry" />
        </mxCell>
        <object label="&lt;div&gt;&lt;span style=&quot;background-color: initial; font-weight: normal;&quot;&gt;&amp;lt;&amp;lt;interface&amp;gt;&amp;gt;&lt;/span&gt;&lt;/div&gt;&lt;div&gt;AccountRepository &amp;lt;Account, Long&amp;gt;&lt;/div&gt;" id="MYnLXi7cYPSJdYGXbcTT-47">
          <mxCell style="swimlane;fontStyle=1;childLayout=stackLayout;horizontal=1;startSize=30;horizontalStack=0;resizeParent=1;resizeParentMax=0;resizeLast=0;collapsible=1;marginBottom=0;whiteSpace=wrap;html=1;" vertex="1" parent="1">
            <mxGeometry x="1150" y="840" width="270" height="60" as="geometry">
              <mxRectangle x="100" y="594" width="90" height="30" as="alternateBounds" />
            </mxGeometry>
          </mxCell>
        </object>
        <mxCell id="MYnLXi7cYPSJdYGXbcTT-48" value="" style="endArrow=open;endFill=1;endSize=12;html=1;rounded=0;entryX=1;entryY=0;entryDx=0;entryDy=0;exitX=0.5;exitY=1;exitDx=0;exitDy=0;" edge="1" parent="1" source="MYnLXi7cYPSJdYGXbcTT-47" target="MYnLXi7cYPSJdYGXbcTT-11">
          <mxGeometry width="160" relative="1" as="geometry">
            <mxPoint x="1310" y="870" as="sourcePoint" />
            <mxPoint x="1212" y="960" as="targetPoint" />
          </mxGeometry>
        </mxCell>
        <mxCell id="MYnLXi7cYPSJdYGXbcTT-49" value="is" style="edgeLabel;html=1;align=center;verticalAlign=middle;resizable=0;points=[];" vertex="1" connectable="0" parent="MYnLXi7cYPSJdYGXbcTT-48">
          <mxGeometry x="-0.1543" y="-3" relative="1" as="geometry">
            <mxPoint x="-6" y="15" as="offset" />
          </mxGeometry>
        </mxCell>
        <mxCell id="MYnLXi7cYPSJdYGXbcTT-50" value="" style="endArrow=diamondThin;endFill=1;endSize=24;html=1;rounded=0;exitX=0.5;exitY=0;exitDx=0;exitDy=0;entryX=0.5;entryY=1;entryDx=0;entryDy=0;" edge="1" parent="1" source="MYnLXi7cYPSJdYGXbcTT-30" target="MYnLXi7cYPSJdYGXbcTT-23">
          <mxGeometry width="160" relative="1" as="geometry">
            <mxPoint x="1286.5700000000002" y="340" as="sourcePoint" />
            <mxPoint x="1290" y="180" as="targetPoint" />
          </mxGeometry>
        </mxCell>
        <mxCell id="MYnLXi7cYPSJdYGXbcTT-51" value="owns" style="edgeLabel;html=1;align=center;verticalAlign=middle;resizable=0;points=[];" vertex="1" connectable="0" parent="MYnLXi7cYPSJdYGXbcTT-50">
          <mxGeometry x="-0.1139" y="-2" relative="1" as="geometry">
            <mxPoint x="-23" y="6" as="offset" />
          </mxGeometry>
        </mxCell>
        <mxCell id="MYnLXi7cYPSJdYGXbcTT-52" value="" style="endArrow=block;dashed=1;endFill=0;endSize=12;html=1;rounded=0;exitX=0.463;exitY=-0.002;exitDx=0;exitDy=0;entryX=0.5;entryY=1;entryDx=0;entryDy=0;exitPerimeter=0;" edge="1" parent="1" source="MYnLXi7cYPSJdYGXbcTT-41" target="MYnLXi7cYPSJdYGXbcTT-30">
          <mxGeometry width="160" relative="1" as="geometry">
            <mxPoint x="851" y="405" as="sourcePoint" />
            <mxPoint x="1330" y="480" as="targetPoint" />
          </mxGeometry>
        </mxCell>
        <mxCell id="MYnLXi7cYPSJdYGXbcTT-53" value="realizes" style="edgeLabel;html=1;align=center;verticalAlign=middle;resizable=0;points=[];" vertex="1" connectable="0" parent="MYnLXi7cYPSJdYGXbcTT-52">
          <mxGeometry x="-0.027" y="4" relative="1" as="geometry">
            <mxPoint x="-20" as="offset" />
          </mxGeometry>
        </mxCell>
        <mxCell id="MYnLXi7cYPSJdYGXbcTT-54" value="" style="endArrow=diamondThin;endFill=1;endSize=24;html=1;rounded=0;entryX=0.5;entryY=1;entryDx=0;entryDy=0;exitX=0.54;exitY=-0.088;exitDx=0;exitDy=0;exitPerimeter=0;" edge="1" parent="1" source="MYnLXi7cYPSJdYGXbcTT-47" target="MYnLXi7cYPSJdYGXbcTT-41">
          <mxGeometry width="160" relative="1" as="geometry">
            <mxPoint x="1305" y="830" as="sourcePoint" />
            <mxPoint x="1304.75" y="751.2" as="targetPoint" />
          </mxGeometry>
        </mxCell>
        <mxCell id="MYnLXi7cYPSJdYGXbcTT-55" value="owns" style="edgeLabel;html=1;align=center;verticalAlign=middle;resizable=0;points=[];" vertex="1" connectable="0" parent="MYnLXi7cYPSJdYGXbcTT-54">
          <mxGeometry x="-0.1139" y="-2" relative="1" as="geometry">
            <mxPoint x="-21" y="6" as="offset" />
          </mxGeometry>
        </mxCell>
        <mxCell id="MYnLXi7cYPSJdYGXbcTT-56" value="uses" style="endArrow=open;endSize=12;dashed=1;html=1;rounded=0;entryX=1;entryY=0.5;entryDx=0;entryDy=0;exitX=0;exitY=0.5;exitDx=0;exitDy=0;" edge="1" parent="1" source="MYnLXi7cYPSJdYGXbcTT-44" target="MYnLXi7cYPSJdYGXbcTT-14">
          <mxGeometry x="0.0083" y="14" width="160" relative="1" as="geometry">
            <mxPoint x="1170" y="610" as="sourcePoint" />
            <mxPoint x="1070" y="570" as="targetPoint" />
            <mxPoint as="offset" />
          </mxGeometry>
        </mxCell>
        <mxCell id="MYnLXi7cYPSJdYGXbcTT-57" value="uses" style="endArrow=open;endSize=12;dashed=1;html=1;rounded=0;exitX=0;exitY=0.5;exitDx=0;exitDy=0;entryX=0.637;entryY=-0.015;entryDx=0;entryDy=0;entryPerimeter=0;" edge="1" parent="1" source="MYnLXi7cYPSJdYGXbcTT-30" target="MYnLXi7cYPSJdYGXbcTT-14">
          <mxGeometry x="0.0083" y="14" width="160" relative="1" as="geometry">
            <mxPoint x="1125.95" y="400.76" as="sourcePoint" />
            <mxPoint x="999.95" y="399.76" as="targetPoint" />
            <mxPoint as="offset" />
          </mxGeometry>
        </mxCell>
        <mxCell id="MYnLXi7cYPSJdYGXbcTT-66" value="uses" style="endArrow=open;endSize=12;dashed=1;html=1;rounded=0;exitX=0;exitY=0.5;exitDx=0;exitDy=0;entryX=1.015;entryY=0.042;entryDx=0;entryDy=0;entryPerimeter=0;" edge="1" parent="1" source="MYnLXi7cYPSJdYGXbcTT-47" target="MYnLXi7cYPSJdYGXbcTT-17">
          <mxGeometry x="0.0083" y="14" width="160" relative="1" as="geometry">
            <mxPoint x="1095.95" y="820.76" as="sourcePoint" />
            <mxPoint x="969.95" y="819.76" as="targetPoint" />
            <mxPoint as="offset" />
          </mxGeometry>
        </mxCell>
        <mxCell id="sIXjIK7IF_1ghcyeQi1O-2" value="" style="endArrow=diamondThin;html=1;rounded=0;exitX=0.5;exitY=1;exitDx=0;exitDy=0;entryX=1;entryY=0.5;entryDx=0;entryDy=0;endFill=1;endSize=24;" edge="1" parent="1" source="HcN8W_5jkTyQGjEK0P02-23" target="MYnLXi7cYPSJdYGXbcTT-41">
          <mxGeometry width="50" height="50" relative="1" as="geometry">
            <mxPoint x="940" y="800" as="sourcePoint" />
            <mxPoint x="1450" y="540" as="targetPoint" />
            <Array as="points">
              <mxPoint x="235" y="1310" />
              <mxPoint x="1540" y="1310" />
              <mxPoint x="1540" y="480" />
            </Array>
          </mxGeometry>
        </mxCell>
        <mxCell id="sIXjIK7IF_1ghcyeQi1O-4" value="owns" style="edgeLabel;html=1;align=center;verticalAlign=middle;resizable=0;points=[];" vertex="1" connectable="0" parent="sIXjIK7IF_1ghcyeQi1O-2">
          <mxGeometry x="0.9255" relative="1" as="geometry">
            <mxPoint y="-10" as="offset" />
          </mxGeometry>
        </mxCell>
        <mxCell id="sIXjIK7IF_1ghcyeQi1O-6" value="uses" style="endArrow=open;endSize=12;dashed=1;html=1;rounded=0;exitX=0;exitY=0.5;exitDx=0;exitDy=0;entryX=0.802;entryY=-0.001;entryDx=0;entryDy=0;entryPerimeter=0;" edge="1" parent="1" source="MYnLXi7cYPSJdYGXbcTT-30" target="nToj158WiI1iEY1h0unO-1">
          <mxGeometry x="0.2412" y="-25" width="160" relative="1" as="geometry">
            <mxPoint x="990" y="310" as="sourcePoint" />
            <mxPoint x="500" y="245" as="targetPoint" />
            <Array as="points">
              <mxPoint x="660" y="260" />
            </Array>
            <mxPoint as="offset" />
          </mxGeometry>
        </mxCell>
        <mxCell id="sIXjIK7IF_1ghcyeQi1O-7" value="uses" style="endArrow=open;endSize=12;dashed=1;html=1;rounded=0;exitX=0;exitY=0.5;exitDx=0;exitDy=0;entryX=1.028;entryY=0.867;entryDx=0;entryDy=0;entryPerimeter=0;" edge="1" parent="1" source="MYnLXi7cYPSJdYGXbcTT-44" target="ckBnWNkUD241kVc8S9oA-14">
          <mxGeometry x="0.6821" y="-26" width="160" relative="1" as="geometry">
            <mxPoint x="1019.01" y="770" as="sourcePoint" />
            <mxPoint x="791.01" y="932" as="targetPoint" />
            <mxPoint as="offset" />
          </mxGeometry>
        </mxCell>
        <mxCell id="WjcOGhZgjRTbMxgfBbS--1" value="uses" style="endArrow=open;endSize=12;dashed=1;html=1;rounded=0;entryX=0.5;entryY=0;entryDx=0;entryDy=0;exitX=0;exitY=0.5;exitDx=0;exitDy=0;" edge="1" parent="1" source="MYnLXi7cYPSJdYGXbcTT-23" target="nToj158WiI1iEY1h0unO-1">
          <mxGeometry x="-0.0409" y="-15" width="160" relative="1" as="geometry">
            <mxPoint x="1100" y="70" as="sourcePoint" />
            <mxPoint x="850.36" y="480" as="targetPoint" />
            <Array as="points">
              <mxPoint x="610" y="85" />
            </Array>
            <mxPoint as="offset" />
          </mxGeometry>
        </mxCell>
        <mxCell id="WjcOGhZgjRTbMxgfBbS--2" value="uses" style="endArrow=open;endSize=12;dashed=1;html=1;rounded=0;entryX=0.25;entryY=0;entryDx=0;entryDy=0;exitX=0;exitY=1;exitDx=0;exitDy=0;" edge="1" parent="1" source="MYnLXi7cYPSJdYGXbcTT-23" target="MYnLXi7cYPSJdYGXbcTT-14">
          <mxGeometry x="0.0083" y="14" width="160" relative="1" as="geometry">
            <mxPoint x="1080" y="90" as="sourcePoint" />
            <mxPoint x="920" y="360" as="targetPoint" />
            <mxPoint as="offset" />
          </mxGeometry>
        </mxCell>
        <object label="Department" id="1cSAiIUdGU8EUYfR8NeU-1">
          <mxCell style="swimlane;fontStyle=1;childLayout=stackLayout;horizontal=1;startSize=30;horizontalStack=0;resizeParent=1;resizeParentMax=0;resizeLast=0;collapsible=1;marginBottom=0;whiteSpace=wrap;html=1;" vertex="1" parent="1">
            <mxGeometry x="800" y="950" width="230" height="140" as="geometry">
              <mxRectangle x="120" y="130" width="90" height="30" as="alternateBounds" />
            </mxGeometry>
          </mxCell>
        </object>
        <mxCell id="1cSAiIUdGU8EUYfR8NeU-2" value="- id: Long" style="text;strokeColor=none;fillColor=none;align=left;verticalAlign=middle;spacingLeft=4;spacingRight=4;overflow=hidden;points=[[0,0.5],[1,0.5]];portConstraint=eastwest;rotatable=0;whiteSpace=wrap;html=1;" vertex="1" parent="1cSAiIUdGU8EUYfR8NeU-1">
          <mxGeometry y="30" width="230" height="30" as="geometry" />
        </mxCell>
        <mxCell id="1cSAiIUdGU8EUYfR8NeU-3" value="- name: String" style="text;strokeColor=none;fillColor=none;align=left;verticalAlign=middle;spacingLeft=4;spacingRight=4;overflow=hidden;points=[[0,0.5],[1,0.5]];portConstraint=eastwest;rotatable=0;whiteSpace=wrap;html=1;" vertex="1" parent="1cSAiIUdGU8EUYfR8NeU-1">
          <mxGeometry y="60" width="230" height="30" as="geometry" />
        </mxCell>
        <mxCell id="1cSAiIUdGU8EUYfR8NeU-4" value="+ Department()&lt;div&gt;+ Getter/Setter&lt;/div&gt;" style="text;strokeColor=default;fillColor=none;align=left;verticalAlign=middle;spacingLeft=4;spacingRight=4;overflow=hidden;points=[[0,0.5],[1,0.5]];portConstraint=eastwest;rotatable=0;whiteSpace=wrap;html=1;" vertex="1" parent="1cSAiIUdGU8EUYfR8NeU-1">
          <mxGeometry y="90" width="230" height="50" as="geometry" />
        </mxCell>
        <object label="Position" id="1cSAiIUdGU8EUYfR8NeU-8">
          <mxCell style="swimlane;fontStyle=1;childLayout=stackLayout;horizontal=1;startSize=30;horizontalStack=0;resizeParent=1;resizeParentMax=0;resizeLast=0;collapsible=1;marginBottom=0;whiteSpace=wrap;html=1;" vertex="1" parent="1">
            <mxGeometry x="530" y="950" width="230" height="140" as="geometry">
              <mxRectangle x="120" y="130" width="90" height="30" as="alternateBounds" />
            </mxGeometry>
          </mxCell>
        </object>
        <mxCell id="1cSAiIUdGU8EUYfR8NeU-9" value="- id: Long" style="text;strokeColor=none;fillColor=none;align=left;verticalAlign=middle;spacingLeft=4;spacingRight=4;overflow=hidden;points=[[0,0.5],[1,0.5]];portConstraint=eastwest;rotatable=0;whiteSpace=wrap;html=1;" vertex="1" parent="1cSAiIUdGU8EUYfR8NeU-8">
          <mxGeometry y="30" width="230" height="30" as="geometry" />
        </mxCell>
        <mxCell id="1cSAiIUdGU8EUYfR8NeU-10" value="- name: String" style="text;strokeColor=none;fillColor=none;align=left;verticalAlign=middle;spacingLeft=4;spacingRight=4;overflow=hidden;points=[[0,0.5],[1,0.5]];portConstraint=eastwest;rotatable=0;whiteSpace=wrap;html=1;" vertex="1" parent="1cSAiIUdGU8EUYfR8NeU-8">
          <mxGeometry y="60" width="230" height="30" as="geometry" />
        </mxCell>
        <mxCell id="1cSAiIUdGU8EUYfR8NeU-11" value="+ Position()&lt;div&gt;+ Getter/Setter&lt;/div&gt;" style="text;strokeColor=default;fillColor=none;align=left;verticalAlign=middle;spacingLeft=4;spacingRight=4;overflow=hidden;points=[[0,0.5],[1,0.5]];portConstraint=eastwest;rotatable=0;whiteSpace=wrap;html=1;" vertex="1" parent="1cSAiIUdGU8EUYfR8NeU-8">
          <mxGeometry y="90" width="230" height="50" as="geometry" />
        </mxCell>
        <mxCell id="1cSAiIUdGU8EUYfR8NeU-14" value="" style="endArrow=diamondThin;endFill=0;endSize=24;html=1;rounded=0;entryX=0.49;entryY=1.02;entryDx=0;entryDy=0;entryPerimeter=0;exitX=0.347;exitY=0.017;exitDx=0;exitDy=0;exitPerimeter=0;" edge="1" parent="1" source="1cSAiIUdGU8EUYfR8NeU-8" target="MYnLXi7cYPSJdYGXbcTT-5">
          <mxGeometry width="160" relative="1" as="geometry">
            <mxPoint x="690" y="900" as="sourcePoint" />
            <mxPoint x="850" y="900" as="targetPoint" />
          </mxGeometry>
        </mxCell>
        <mxCell id="1cSAiIUdGU8EUYfR8NeU-15" value="has" style="edgeLabel;html=1;align=center;verticalAlign=middle;resizable=0;points=[];" vertex="1" connectable="0" parent="1cSAiIUdGU8EUYfR8NeU-14">
          <mxGeometry x="-0.2776" y="-3" relative="1" as="geometry">
            <mxPoint x="9" y="1" as="offset" />
          </mxGeometry>
        </mxCell>
        <mxCell id="1cSAiIUdGU8EUYfR8NeU-16" value="" style="endArrow=diamondThin;endFill=0;endSize=24;html=1;rounded=0;entryX=1.026;entryY=1.006;entryDx=0;entryDy=0;entryPerimeter=0;" edge="1" parent="1" source="1cSAiIUdGU8EUYfR8NeU-1" target="MYnLXi7cYPSJdYGXbcTT-5">
          <mxGeometry width="160" relative="1" as="geometry">
            <mxPoint x="905.89" y="937" as="sourcePoint" />
            <mxPoint x="903.89" y="870" as="targetPoint" />
          </mxGeometry>
        </mxCell>
        <mxCell id="1cSAiIUdGU8EUYfR8NeU-17" value="has" style="edgeLabel;html=1;align=center;verticalAlign=middle;resizable=0;points=[];" vertex="1" connectable="0" parent="1cSAiIUdGU8EUYfR8NeU-16">
          <mxGeometry x="-0.2776" y="-3" relative="1" as="geometry">
            <mxPoint x="14" y="-2" as="offset" />
          </mxGeometry>
        </mxCell>
      </root>
    </mxGraphModel>
  </diagram>
  <diagram id="cZ1ZmCg8-fXnwS2KuWLw" name="sequence_diagram">
    <mxGraphModel dx="2965" dy="2374" grid="1" gridSize="10" guides="1" tooltips="1" connect="1" arrows="1" fold="1" page="1" pageScale="1" pageWidth="827" pageHeight="1169" math="0" shadow="0">
      <root>
        <mxCell id="0" />
        <mxCell id="1" parent="0" />
        <mxCell id="XgAuNluO4X0s_aozL4Z1-3" value="&lt;div&gt;&lt;br&gt;&lt;/div&gt;&lt;div&gt;&lt;br&gt;&lt;/div&gt;&lt;div&gt;&lt;br&gt;&lt;/div&gt;&lt;div&gt;&lt;br&gt;&lt;/div&gt;&lt;div&gt;&lt;br&gt;&lt;/div&gt;&lt;div&gt;&lt;br&gt;&lt;/div&gt;&lt;div&gt;&lt;br&gt;&lt;/div&gt;&lt;div&gt;&lt;br&gt;&lt;/div&gt;Manager" style="shape=umlLifeline;perimeter=lifelinePerimeter;whiteSpace=wrap;html=1;container=1;dropTarget=0;collapsible=0;recursiveResize=0;outlineConnect=0;portConstraint=eastwest;newEdgeStyle={&quot;curved&quot;:0,&quot;rounded&quot;:0};participant=umlActor;size=80;" vertex="1" parent="1">
          <mxGeometry x="100" y="10" width="40" height="670" as="geometry" />
        </mxCell>
        <mxCell id="XgAuNluO4X0s_aozL4Z1-5" value="View" style="shape=umlLifeline;perimeter=lifelinePerimeter;whiteSpace=wrap;html=1;container=1;dropTarget=0;collapsible=0;recursiveResize=0;outlineConnect=0;portConstraint=eastwest;newEdgeStyle={&quot;curved&quot;:0,&quot;rounded&quot;:0};" vertex="1" parent="1">
          <mxGeometry x="210" y="50" width="100" height="630" as="geometry" />
        </mxCell>
        <mxCell id="XgAuNluO4X0s_aozL4Z1-6" value="" style="html=1;points=[[0,0,0,0,5],[0,1,0,0,-5],[1,0,0,0,5],[1,1,0,0,-5]];perimeter=orthogonalPerimeter;outlineConnect=0;targetShapes=umlLifeline;portConstraint=eastwest;newEdgeStyle={&quot;curved&quot;:0,&quot;rounded&quot;:0};" vertex="1" parent="1">
          <mxGeometry x="255" y="120" width="10" height="500" as="geometry" />
        </mxCell>
        <mxCell id="XgAuNluO4X0s_aozL4Z1-7" value="1. View list employee" style="html=1;verticalAlign=bottom;endArrow=block;curved=0;rounded=0;" edge="1" parent="1" source="XgAuNluO4X0s_aozL4Z1-3" target="XgAuNluO4X0s_aozL4Z1-6">
          <mxGeometry y="9" width="80" relative="1" as="geometry">
            <mxPoint x="139.46666463216147" y="200" as="sourcePoint" />
            <mxPoint x="180" y="200" as="targetPoint" />
            <Array as="points">
              <mxPoint x="180" y="170" />
            </Array>
            <mxPoint as="offset" />
          </mxGeometry>
        </mxCell>
        <mxCell id="n_0b9NsxMSp-JjWQS612-1" value="EmployeeController" style="shape=umlLifeline;perimeter=lifelinePerimeter;whiteSpace=wrap;html=1;container=1;dropTarget=0;collapsible=0;recursiveResize=0;outlineConnect=0;portConstraint=eastwest;newEdgeStyle={&quot;curved&quot;:0,&quot;rounded&quot;:0};" vertex="1" parent="1">
          <mxGeometry x="377" y="50" width="120" height="630" as="geometry" />
        </mxCell>
        <mxCell id="n_0b9NsxMSp-JjWQS612-2" value="" style="html=1;points=[[0,0,0,0,5],[0,1,0,0,-5],[1,0,0,0,5],[1,1,0,0,-5]];perimeter=orthogonalPerimeter;outlineConnect=0;targetShapes=umlLifeline;portConstraint=eastwest;newEdgeStyle={&quot;curved&quot;:0,&quot;rounded&quot;:0};" vertex="1" parent="1">
          <mxGeometry x="432" y="150" width="10" height="430" as="geometry" />
        </mxCell>
        <mxCell id="n_0b9NsxMSp-JjWQS612-3" value="2. getAllEmployee()" style="html=1;verticalAlign=bottom;endArrow=block;curved=0;rounded=0;" edge="1" parent="1" source="XgAuNluO4X0s_aozL4Z1-6" target="n_0b9NsxMSp-JjWQS612-2">
          <mxGeometry y="9" width="80" relative="1" as="geometry">
            <mxPoint x="277.93" y="210" as="sourcePoint" />
            <mxPoint x="413.93" y="210" as="targetPoint" />
            <Array as="points">
              <mxPoint x="340" y="190" />
            </Array>
            <mxPoint as="offset" />
          </mxGeometry>
        </mxCell>
        <mxCell id="uKdZWheY3OZ2gx0tMlrj-1" value="EmployeeService" style="shape=umlLifeline;perimeter=lifelinePerimeter;whiteSpace=wrap;html=1;container=1;dropTarget=0;collapsible=0;recursiveResize=0;outlineConnect=0;portConstraint=eastwest;newEdgeStyle={&quot;curved&quot;:0,&quot;rounded&quot;:0};" vertex="1" parent="1">
          <mxGeometry x="540" y="50" width="120" height="630" as="geometry" />
        </mxCell>
        <mxCell id="uKdZWheY3OZ2gx0tMlrj-2" value="" style="html=1;points=[[0,0,0,0,5],[0,1,0,0,-5],[1,0,0,0,5],[1,1,0,0,-5]];perimeter=orthogonalPerimeter;outlineConnect=0;targetShapes=umlLifeline;portConstraint=eastwest;newEdgeStyle={&quot;curved&quot;:0,&quot;rounded&quot;:0};" vertex="1" parent="1">
          <mxGeometry x="595" y="170" width="10" height="380" as="geometry" />
        </mxCell>
        <mxCell id="RK0KuFZ_5CEEuRK41en_-1" value="3. findAllEmployee()" style="html=1;verticalAlign=bottom;endArrow=block;curved=0;rounded=0;" edge="1" parent="1" source="n_0b9NsxMSp-JjWQS612-2" target="uKdZWheY3OZ2gx0tMlrj-2">
          <mxGeometry y="9" width="80" relative="1" as="geometry">
            <mxPoint x="470" y="380" as="sourcePoint" />
            <mxPoint x="560" y="380" as="targetPoint" />
            <Array as="points">
              <mxPoint x="520" y="210" />
            </Array>
            <mxPoint as="offset" />
          </mxGeometry>
        </mxCell>
        <mxCell id="tnPLUHbfkHHnk2Zr_GuE-1" value="Employee&lt;div&gt;Repository&lt;/div&gt;" style="shape=umlLifeline;perimeter=lifelinePerimeter;whiteSpace=wrap;html=1;container=1;dropTarget=0;collapsible=0;recursiveResize=0;outlineConnect=0;portConstraint=eastwest;newEdgeStyle={&quot;curved&quot;:0,&quot;rounded&quot;:0};" vertex="1" parent="1">
          <mxGeometry x="700" y="50" width="120" height="630" as="geometry" />
        </mxCell>
        <mxCell id="tnPLUHbfkHHnk2Zr_GuE-2" value="" style="html=1;points=[[0,0,0,0,5],[0,1,0,0,-5],[1,0,0,0,5],[1,1,0,0,-5]];perimeter=orthogonalPerimeter;outlineConnect=0;targetShapes=umlLifeline;portConstraint=eastwest;newEdgeStyle={&quot;curved&quot;:0,&quot;rounded&quot;:0};" vertex="1" parent="1">
          <mxGeometry x="755" y="170" width="10" height="350" as="geometry" />
        </mxCell>
        <mxCell id="tnPLUHbfkHHnk2Zr_GuE-3" value="4. findAll()" style="html=1;verticalAlign=bottom;endArrow=block;curved=0;rounded=0;" edge="1" parent="1" source="uKdZWheY3OZ2gx0tMlrj-2" target="tnPLUHbfkHHnk2Zr_GuE-2">
          <mxGeometry y="9" width="80" relative="1" as="geometry">
            <mxPoint x="620" y="230" as="sourcePoint" />
            <mxPoint x="730" y="230" as="targetPoint" />
            <Array as="points">
              <mxPoint x="708" y="230" />
            </Array>
            <mxPoint as="offset" />
          </mxGeometry>
        </mxCell>
        <mxCell id="tnPLUHbfkHHnk2Zr_GuE-4" value="Database" style="shape=umlLifeline;perimeter=lifelinePerimeter;whiteSpace=wrap;html=1;container=1;dropTarget=0;collapsible=0;recursiveResize=0;outlineConnect=0;portConstraint=eastwest;newEdgeStyle={&quot;curved&quot;:0,&quot;rounded&quot;:0};" vertex="1" parent="1">
          <mxGeometry x="900" y="50" width="120" height="630" as="geometry" />
        </mxCell>
        <mxCell id="tnPLUHbfkHHnk2Zr_GuE-5" value="" style="html=1;points=[[0,0,0,0,5],[0,1,0,0,-5],[1,0,0,0,5],[1,1,0,0,-5]];perimeter=orthogonalPerimeter;outlineConnect=0;targetShapes=umlLifeline;portConstraint=eastwest;newEdgeStyle={&quot;curved&quot;:0,&quot;rounded&quot;:0};" vertex="1" parent="1">
          <mxGeometry x="955" y="190" width="10" height="300" as="geometry" />
        </mxCell>
        <mxCell id="tnPLUHbfkHHnk2Zr_GuE-6" value="5. executeQuery()" style="html=1;verticalAlign=bottom;endArrow=block;curved=0;rounded=0;" edge="1" parent="1" source="tnPLUHbfkHHnk2Zr_GuE-2" target="tnPLUHbfkHHnk2Zr_GuE-5">
          <mxGeometry y="9" width="80" relative="1" as="geometry">
            <mxPoint x="830" y="250" as="sourcePoint" />
            <mxPoint x="915" y="250" as="targetPoint" />
            <Array as="points">
              <mxPoint x="868" y="250" />
            </Array>
            <mxPoint as="offset" />
          </mxGeometry>
        </mxCell>
        <mxCell id="tnPLUHbfkHHnk2Zr_GuE-7" value="6. Return result" style="html=1;verticalAlign=bottom;endArrow=open;dashed=1;endSize=8;curved=0;rounded=0;" edge="1" parent="1" source="tnPLUHbfkHHnk2Zr_GuE-5" target="tnPLUHbfkHHnk2Zr_GuE-2">
          <mxGeometry x="-0.0017" y="-5" relative="1" as="geometry">
            <mxPoint x="955.0000000000002" y="304.68" as="sourcePoint" />
            <mxPoint x="765.0000000000002" y="304.68" as="targetPoint" />
            <Array as="points">
              <mxPoint x="870" y="300" />
            </Array>
            <mxPoint as="offset" />
          </mxGeometry>
        </mxCell>
        <mxCell id="tnPLUHbfkHHnk2Zr_GuE-8" value="7. Return result" style="html=1;verticalAlign=bottom;endArrow=open;dashed=1;endSize=8;curved=0;rounded=0;" edge="1" parent="1" source="tnPLUHbfkHHnk2Zr_GuE-2" target="uKdZWheY3OZ2gx0tMlrj-2">
          <mxGeometry x="-0.0017" y="-5" relative="1" as="geometry">
            <mxPoint x="755.0000000000002" y="340" as="sourcePoint" />
            <mxPoint x="630" y="340" as="targetPoint" />
            <Array as="points">
              <mxPoint x="680" y="320" />
            </Array>
            <mxPoint as="offset" />
          </mxGeometry>
        </mxCell>
        <mxCell id="tnPLUHbfkHHnk2Zr_GuE-9" value="8. Return result" style="html=1;verticalAlign=bottom;endArrow=open;dashed=1;endSize=8;curved=0;rounded=0;" edge="1" parent="1" source="uKdZWheY3OZ2gx0tMlrj-2" target="n_0b9NsxMSp-JjWQS612-2">
          <mxGeometry x="-0.0017" y="-5" relative="1" as="geometry">
            <mxPoint x="580" y="350" as="sourcePoint" />
            <mxPoint x="450" y="350" as="targetPoint" />
            <Array as="points">
              <mxPoint x="500" y="340" />
            </Array>
            <mxPoint as="offset" />
          </mxGeometry>
        </mxCell>
        <mxCell id="tnPLUHbfkHHnk2Zr_GuE-10" value="9. Return valid view" style="html=1;verticalAlign=bottom;endArrow=open;dashed=1;endSize=8;curved=0;rounded=0;" edge="1" parent="1" source="n_0b9NsxMSp-JjWQS612-2" target="XgAuNluO4X0s_aozL4Z1-6">
          <mxGeometry x="-0.0017" y="-5" relative="1" as="geometry">
            <mxPoint x="418" y="360" as="sourcePoint" />
            <mxPoint x="280" y="360" as="targetPoint" />
            <Array as="points">
              <mxPoint x="323" y="360" />
            </Array>
            <mxPoint as="offset" />
          </mxGeometry>
        </mxCell>
        <mxCell id="tnPLUHbfkHHnk2Zr_GuE-11" value="10. Display list employee" style="html=1;verticalAlign=bottom;endArrow=open;dashed=1;endSize=8;curved=0;rounded=0;" edge="1" parent="1" source="XgAuNluO4X0s_aozL4Z1-6" target="XgAuNluO4X0s_aozL4Z1-3">
          <mxGeometry x="-0.0017" y="-5" relative="1" as="geometry">
            <mxPoint x="237" y="380" as="sourcePoint" />
            <mxPoint x="70" y="380" as="targetPoint" />
            <Array as="points">
              <mxPoint x="128" y="380" />
            </Array>
            <mxPoint as="offset" />
          </mxGeometry>
        </mxCell>
        <mxCell id="tnPLUHbfkHHnk2Zr_GuE-12" value="" style="endArrow=none;dashed=1;html=1;dashPattern=1 3;strokeWidth=2;rounded=0;exitX=-0.002;exitY=0.427;exitDx=0;exitDy=0;exitPerimeter=0;entryX=1.002;entryY=0.424;entryDx=0;entryDy=0;entryPerimeter=0;" edge="1" parent="1" source="VYFeyW_tF7Vwv59jO5LT-1" target="VYFeyW_tF7Vwv59jO5LT-1">
          <mxGeometry width="50" height="50" relative="1" as="geometry">
            <mxPoint x="90" y="430" as="sourcePoint" />
            <mxPoint x="1050" y="430" as="targetPoint" />
          </mxGeometry>
        </mxCell>
        <mxCell id="tnPLUHbfkHHnk2Zr_GuE-14" value="11. Return empty list" style="html=1;verticalAlign=bottom;endArrow=open;dashed=1;endSize=8;curved=0;rounded=0;" edge="1" parent="1" source="tnPLUHbfkHHnk2Zr_GuE-5" target="tnPLUHbfkHHnk2Zr_GuE-2">
          <mxGeometry x="-0.0017" y="-5" relative="1" as="geometry">
            <mxPoint x="955" y="470" as="sourcePoint" />
            <mxPoint x="765" y="470" as="targetPoint" />
            <Array as="points">
              <mxPoint x="870" y="470" />
            </Array>
            <mxPoint as="offset" />
          </mxGeometry>
        </mxCell>
        <mxCell id="tnPLUHbfkHHnk2Zr_GuE-16" value="12. Return empty list" style="html=1;verticalAlign=bottom;endArrow=open;dashed=1;endSize=8;curved=0;rounded=0;" edge="1" parent="1" source="tnPLUHbfkHHnk2Zr_GuE-2" target="uKdZWheY3OZ2gx0tMlrj-2">
          <mxGeometry x="-0.0017" y="-5" relative="1" as="geometry">
            <mxPoint x="730" y="500" as="sourcePoint" />
            <mxPoint x="605" y="500" as="targetPoint" />
            <Array as="points">
              <mxPoint x="720" y="490" />
            </Array>
            <mxPoint as="offset" />
          </mxGeometry>
        </mxCell>
        <mxCell id="tnPLUHbfkHHnk2Zr_GuE-17" value="13. Return empty list" style="html=1;verticalAlign=bottom;endArrow=open;dashed=1;endSize=8;curved=0;rounded=0;" edge="1" parent="1" source="uKdZWheY3OZ2gx0tMlrj-2" target="n_0b9NsxMSp-JjWQS612-2">
          <mxGeometry x="-0.0017" y="-5" relative="1" as="geometry">
            <mxPoint x="560" y="510" as="sourcePoint" />
            <mxPoint x="470" y="510" as="targetPoint" />
            <Array as="points">
              <mxPoint x="547" y="510" />
            </Array>
            <mxPoint as="offset" />
          </mxGeometry>
        </mxCell>
        <mxCell id="tnPLUHbfkHHnk2Zr_GuE-18" value="14. Return empty list" style="html=1;verticalAlign=bottom;endArrow=open;dashed=1;endSize=8;curved=0;rounded=0;" edge="1" parent="1" source="n_0b9NsxMSp-JjWQS612-2" target="XgAuNluO4X0s_aozL4Z1-6">
          <mxGeometry x="0.0024" y="-5" relative="1" as="geometry">
            <mxPoint x="418" y="530" as="sourcePoint" />
            <mxPoint x="290" y="530" as="targetPoint" />
            <Array as="points">
              <mxPoint x="370" y="530" />
            </Array>
            <mxPoint as="offset" />
          </mxGeometry>
        </mxCell>
        <mxCell id="tnPLUHbfkHHnk2Zr_GuE-19" value="15. Display no employees&amp;nbsp;&lt;div&gt;found message&lt;/div&gt;" style="html=1;verticalAlign=bottom;endArrow=open;dashed=1;endSize=8;curved=0;rounded=0;" edge="1" parent="1" source="XgAuNluO4X0s_aozL4Z1-6" target="XgAuNluO4X0s_aozL4Z1-3">
          <mxGeometry x="0.0024" y="-5" relative="1" as="geometry">
            <mxPoint x="247" y="550" as="sourcePoint" />
            <mxPoint x="140" y="550" as="targetPoint" />
            <Array as="points">
              <mxPoint x="185" y="550" />
            </Array>
            <mxPoint as="offset" />
          </mxGeometry>
        </mxCell>
        <mxCell id="tnPLUHbfkHHnk2Zr_GuE-20" value="&lt;div&gt;&lt;br&gt;&lt;/div&gt;&lt;div&gt;&lt;br&gt;&lt;/div&gt;&lt;div&gt;&lt;br&gt;&lt;/div&gt;&lt;div&gt;&lt;br&gt;&lt;/div&gt;&lt;div&gt;&lt;br&gt;&lt;/div&gt;&lt;div&gt;&lt;br&gt;&lt;/div&gt;&lt;div&gt;&lt;br&gt;&lt;/div&gt;&lt;div&gt;&lt;br&gt;&lt;/div&gt;Manager" style="shape=umlLifeline;perimeter=lifelinePerimeter;whiteSpace=wrap;html=1;container=1;dropTarget=0;collapsible=0;recursiveResize=0;outlineConnect=0;portConstraint=eastwest;newEdgeStyle={&quot;curved&quot;:0,&quot;rounded&quot;:0};participant=umlActor;size=80;" vertex="1" parent="1">
          <mxGeometry x="1250" y="10" width="40" height="910" as="geometry" />
        </mxCell>
        <mxCell id="tnPLUHbfkHHnk2Zr_GuE-21" value="View" style="shape=umlLifeline;perimeter=lifelinePerimeter;whiteSpace=wrap;html=1;container=1;dropTarget=0;collapsible=0;recursiveResize=0;outlineConnect=0;portConstraint=eastwest;newEdgeStyle={&quot;curved&quot;:0,&quot;rounded&quot;:0};" vertex="1" parent="1">
          <mxGeometry x="1360" y="50" width="100" height="870" as="geometry" />
        </mxCell>
        <mxCell id="tnPLUHbfkHHnk2Zr_GuE-22" value="" style="html=1;points=[[0,0,0,0,5],[0,1,0,0,-5],[1,0,0,0,5],[1,1,0,0,-5]];perimeter=orthogonalPerimeter;outlineConnect=0;targetShapes=umlLifeline;portConstraint=eastwest;newEdgeStyle={&quot;curved&quot;:0,&quot;rounded&quot;:0};" vertex="1" parent="1">
          <mxGeometry x="1405" y="120" width="10" height="760" as="geometry" />
        </mxCell>
        <mxCell id="tnPLUHbfkHHnk2Zr_GuE-23" value="1. Create employee&lt;div&gt;account&lt;/div&gt;" style="html=1;verticalAlign=bottom;endArrow=block;curved=0;rounded=0;" edge="1" source="tnPLUHbfkHHnk2Zr_GuE-20" target="tnPLUHbfkHHnk2Zr_GuE-22" parent="1">
          <mxGeometry y="9" width="80" relative="1" as="geometry">
            <mxPoint x="1289.4666646321614" y="200" as="sourcePoint" />
            <mxPoint x="1330" y="200" as="targetPoint" />
            <Array as="points">
              <mxPoint x="1330" y="170" />
            </Array>
            <mxPoint as="offset" />
          </mxGeometry>
        </mxCell>
        <mxCell id="tnPLUHbfkHHnk2Zr_GuE-24" value="AccountController" style="shape=umlLifeline;perimeter=lifelinePerimeter;whiteSpace=wrap;html=1;container=1;dropTarget=0;collapsible=0;recursiveResize=0;outlineConnect=0;portConstraint=eastwest;newEdgeStyle={&quot;curved&quot;:0,&quot;rounded&quot;:0};" vertex="1" parent="1">
          <mxGeometry x="1527" y="50" width="120" height="870" as="geometry" />
        </mxCell>
        <mxCell id="tnPLUHbfkHHnk2Zr_GuE-25" value="" style="html=1;points=[[0,0,0,0,5],[0,1,0,0,-5],[1,0,0,0,5],[1,1,0,0,-5]];perimeter=orthogonalPerimeter;outlineConnect=0;targetShapes=umlLifeline;portConstraint=eastwest;newEdgeStyle={&quot;curved&quot;:0,&quot;rounded&quot;:0};" vertex="1" parent="1">
          <mxGeometry x="1582" y="140" width="10" height="720" as="geometry" />
        </mxCell>
        <mxCell id="tnPLUHbfkHHnk2Zr_GuE-26" value="2. createEmployeeAccount()" style="html=1;verticalAlign=bottom;endArrow=block;curved=0;rounded=0;" edge="1" source="tnPLUHbfkHHnk2Zr_GuE-22" target="tnPLUHbfkHHnk2Zr_GuE-25" parent="1">
          <mxGeometry x="-0.0041" y="9" width="80" relative="1" as="geometry">
            <mxPoint x="1427.93" y="210" as="sourcePoint" />
            <mxPoint x="1563.93" y="210" as="targetPoint" />
            <Array as="points">
              <mxPoint x="1490" y="190" />
            </Array>
            <mxPoint as="offset" />
          </mxGeometry>
        </mxCell>
        <mxCell id="tnPLUHbfkHHnk2Zr_GuE-27" value="AccountService" style="shape=umlLifeline;perimeter=lifelinePerimeter;whiteSpace=wrap;html=1;container=1;dropTarget=0;collapsible=0;recursiveResize=0;outlineConnect=0;portConstraint=eastwest;newEdgeStyle={&quot;curved&quot;:0,&quot;rounded&quot;:0};" vertex="1" parent="1">
          <mxGeometry x="1690" y="50" width="120" height="870" as="geometry" />
        </mxCell>
        <mxCell id="tnPLUHbfkHHnk2Zr_GuE-28" value="" style="html=1;points=[[0,0,0,0,5],[0,1,0,0,-5],[1,0,0,0,5],[1,1,0,0,-5]];perimeter=orthogonalPerimeter;outlineConnect=0;targetShapes=umlLifeline;portConstraint=eastwest;newEdgeStyle={&quot;curved&quot;:0,&quot;rounded&quot;:0};" vertex="1" parent="1">
          <mxGeometry x="1745" y="160" width="10" height="680" as="geometry" />
        </mxCell>
        <mxCell id="tnPLUHbfkHHnk2Zr_GuE-29" value="&lt;font style=&quot;font-size: 11px;&quot;&gt;3.&amp;nbsp;&lt;span style=&quot;text-align: left; text-wrap: wrap; background-color: rgb(251, 251, 251);&quot;&gt;createEmployeeAccount()&lt;/span&gt;&lt;/font&gt;" style="html=1;verticalAlign=bottom;endArrow=block;curved=0;rounded=0;" edge="1" source="tnPLUHbfkHHnk2Zr_GuE-25" target="tnPLUHbfkHHnk2Zr_GuE-28" parent="1">
          <mxGeometry y="9" width="80" relative="1" as="geometry">
            <mxPoint x="1620" y="380" as="sourcePoint" />
            <mxPoint x="1710" y="380" as="targetPoint" />
            <Array as="points">
              <mxPoint x="1670" y="210" />
            </Array>
            <mxPoint as="offset" />
          </mxGeometry>
        </mxCell>
        <mxCell id="tnPLUHbfkHHnk2Zr_GuE-30" value="Account&lt;div&gt;Repository&lt;/div&gt;" style="shape=umlLifeline;perimeter=lifelinePerimeter;whiteSpace=wrap;html=1;container=1;dropTarget=0;collapsible=0;recursiveResize=0;outlineConnect=0;portConstraint=eastwest;newEdgeStyle={&quot;curved&quot;:0,&quot;rounded&quot;:0};" vertex="1" parent="1">
          <mxGeometry x="1980" y="50" width="120" height="870" as="geometry" />
        </mxCell>
        <mxCell id="tnPLUHbfkHHnk2Zr_GuE-31" value="" style="html=1;points=[[0,0,0,0,5],[0,1,0,0,-5],[1,0,0,0,5],[1,1,0,0,-5]];perimeter=orthogonalPerimeter;outlineConnect=0;targetShapes=umlLifeline;portConstraint=eastwest;newEdgeStyle={&quot;curved&quot;:0,&quot;rounded&quot;:0};" vertex="1" parent="1">
          <mxGeometry x="2035" y="200" width="10" height="600" as="geometry" />
        </mxCell>
        <mxCell id="tnPLUHbfkHHnk2Zr_GuE-33" value="&lt;div&gt;Database&lt;/div&gt;" style="shape=umlLifeline;perimeter=lifelinePerimeter;whiteSpace=wrap;html=1;container=1;dropTarget=0;collapsible=0;recursiveResize=0;outlineConnect=0;portConstraint=eastwest;newEdgeStyle={&quot;curved&quot;:0,&quot;rounded&quot;:0};" vertex="1" parent="1">
          <mxGeometry x="2190" y="50" width="120" height="870" as="geometry" />
        </mxCell>
        <mxCell id="tnPLUHbfkHHnk2Zr_GuE-34" value="" style="html=1;points=[[0,0,0,0,5],[0,1,0,0,-5],[1,0,0,0,5],[1,1,0,0,-5]];perimeter=orthogonalPerimeter;outlineConnect=0;targetShapes=umlLifeline;portConstraint=eastwest;newEdgeStyle={&quot;curved&quot;:0,&quot;rounded&quot;:0};" vertex="1" parent="1">
          <mxGeometry x="2245" y="220" width="10" height="560" as="geometry" />
        </mxCell>
        <mxCell id="tnPLUHbfkHHnk2Zr_GuE-38" value="8. Return&amp;nbsp;&lt;div&gt;&quot;Account already exists&quot;&lt;/div&gt;" style="html=1;verticalAlign=bottom;endArrow=open;dashed=1;endSize=8;curved=0;rounded=0;" edge="1" source="tnPLUHbfkHHnk2Zr_GuE-28" target="tnPLUHbfkHHnk2Zr_GuE-25" parent="1">
          <mxGeometry x="0.0045" y="-5" relative="1" as="geometry">
            <mxPoint x="1730" y="350" as="sourcePoint" />
            <mxPoint x="1600" y="350" as="targetPoint" />
            <Array as="points">
              <mxPoint x="1650" y="340" />
            </Array>
            <mxPoint as="offset" />
          </mxGeometry>
        </mxCell>
        <mxCell id="tnPLUHbfkHHnk2Zr_GuE-39" value="9. Return&amp;nbsp;&lt;div&gt;&quot;Account already exists&quot;&lt;/div&gt;" style="html=1;verticalAlign=bottom;endArrow=open;dashed=1;endSize=8;curved=0;rounded=0;" edge="1" source="tnPLUHbfkHHnk2Zr_GuE-25" target="tnPLUHbfkHHnk2Zr_GuE-22" parent="1">
          <mxGeometry x="-0.0041" y="-5" relative="1" as="geometry">
            <mxPoint x="1568" y="360" as="sourcePoint" />
            <mxPoint x="1430" y="360" as="targetPoint" />
            <Array as="points">
              <mxPoint x="1473" y="360" />
            </Array>
            <mxPoint as="offset" />
          </mxGeometry>
        </mxCell>
        <mxCell id="tnPLUHbfkHHnk2Zr_GuE-40" value="10. Display&amp;nbsp;&lt;div&gt;&quot;Account already exists&quot;&lt;/div&gt;" style="html=1;verticalAlign=bottom;endArrow=open;dashed=1;endSize=8;curved=0;rounded=0;" edge="1" source="tnPLUHbfkHHnk2Zr_GuE-22" target="tnPLUHbfkHHnk2Zr_GuE-20" parent="1">
          <mxGeometry x="-0.0017" y="-5" relative="1" as="geometry">
            <mxPoint x="1387" y="380" as="sourcePoint" />
            <mxPoint x="1220" y="380" as="targetPoint" />
            <Array as="points">
              <mxPoint x="1278" y="380" />
            </Array>
            <mxPoint as="offset" />
          </mxGeometry>
        </mxCell>
        <mxCell id="VYFeyW_tF7Vwv59jO5LT-1" value="at find all employee" style="shape=umlFrame;whiteSpace=wrap;html=1;pointerEvents=0;width=80;height=50;" vertex="1" parent="1">
          <mxGeometry x="-20" y="270" width="1110" height="370" as="geometry" />
        </mxCell>
        <mxCell id="VYFeyW_tF7Vwv59jO5LT-2" value="[not&amp;nbsp;&lt;span style=&quot;background-color: initial;&quot;&gt;empty&amp;nbsp;&lt;/span&gt;&lt;span style=&quot;background-color: initial;&quot;&gt;list]&lt;/span&gt;" style="text;html=1;align=center;verticalAlign=middle;resizable=0;points=[];autosize=1;strokeColor=none;fillColor=none;" vertex="1" parent="1">
          <mxGeometry y="345" width="100" height="30" as="geometry" />
        </mxCell>
        <mxCell id="VYFeyW_tF7Vwv59jO5LT-5" value="[&lt;span style=&quot;background-color: initial;&quot;&gt;empty&amp;nbsp;&lt;/span&gt;&lt;span style=&quot;background-color: initial;&quot;&gt;list]&lt;/span&gt;" style="text;html=1;align=center;verticalAlign=middle;resizable=0;points=[];autosize=1;strokeColor=none;fillColor=none;" vertex="1" parent="1">
          <mxGeometry x="10" y="450" width="80" height="30" as="geometry" />
        </mxCell>
        <mxCell id="hHhjy9kQx4CPRr9xOQkH-1" value="&lt;div style=&quot;text-align: left;&quot;&gt;14. &lt;span style=&quot;text-wrap: wrap; background-color: rgb(251, 251, 251);&quot;&gt;executeUpdate()&lt;/span&gt;&lt;/div&gt;" style="html=1;verticalAlign=bottom;endArrow=block;curved=0;rounded=0;" edge="1" parent="1" source="tnPLUHbfkHHnk2Zr_GuE-31" target="tnPLUHbfkHHnk2Zr_GuE-34">
          <mxGeometry y="10" width="80" relative="1" as="geometry">
            <mxPoint x="1930" y="560" as="sourcePoint" />
            <mxPoint x="2080" y="560" as="targetPoint" />
            <Array as="points">
              <mxPoint x="2045" y="560" />
            </Array>
            <mxPoint as="offset" />
          </mxGeometry>
        </mxCell>
        <mxCell id="hHhjy9kQx4CPRr9xOQkH-8" value="19. Return success" style="html=1;verticalAlign=bottom;endArrow=open;dashed=1;endSize=8;curved=0;rounded=0;" edge="1" parent="1" source="tnPLUHbfkHHnk2Zr_GuE-34" target="hHhjy9kQx4CPRr9xOQkH-11">
          <mxGeometry x="-0.0012" y="-5" relative="1" as="geometry">
            <mxPoint x="2095" y="750" as="sourcePoint" />
            <mxPoint x="1905" y="750" as="targetPoint" />
            <Array as="points">
              <mxPoint x="2010" y="750" />
            </Array>
            <mxPoint as="offset" />
          </mxGeometry>
        </mxCell>
        <mxCell id="hHhjy9kQx4CPRr9xOQkH-9" value="20. Return success" style="html=1;verticalAlign=bottom;endArrow=open;dashed=1;endSize=8;curved=0;rounded=0;" edge="1" parent="1" source="hHhjy9kQx4CPRr9xOQkH-11" target="tnPLUHbfkHHnk2Zr_GuE-28">
          <mxGeometry x="-0.0061" y="-5" relative="1" as="geometry">
            <mxPoint x="1990" y="780" as="sourcePoint" />
            <mxPoint x="1770" y="780" as="targetPoint" />
            <Array as="points">
              <mxPoint x="1840" y="780" />
              <mxPoint x="1810" y="780" />
              <mxPoint x="1780" y="780" />
            </Array>
            <mxPoint as="offset" />
          </mxGeometry>
        </mxCell>
        <mxCell id="hHhjy9kQx4CPRr9xOQkH-12" value="&lt;div&gt;Employee&lt;/div&gt;&lt;div&gt;Repository&lt;/div&gt;" style="shape=umlLifeline;perimeter=lifelinePerimeter;whiteSpace=wrap;html=1;container=1;dropTarget=0;collapsible=0;recursiveResize=0;outlineConnect=0;portConstraint=eastwest;newEdgeStyle={&quot;curved&quot;:0,&quot;rounded&quot;:0};" vertex="1" parent="1">
          <mxGeometry x="1830" y="50" width="120" height="870" as="geometry" />
        </mxCell>
        <mxCell id="hHhjy9kQx4CPRr9xOQkH-13" value="&lt;div style=&quot;text-align: left;&quot;&gt;&lt;span style=&quot;text-align: center;&quot;&gt;5. executeQuery()&lt;/span&gt;&lt;br&gt;&lt;/div&gt;" style="html=1;verticalAlign=bottom;endArrow=block;curved=0;rounded=0;" edge="1" parent="1" source="tnPLUHbfkHHnk2Zr_GuE-31" target="tnPLUHbfkHHnk2Zr_GuE-34">
          <mxGeometry y="9" width="80" relative="1" as="geometry">
            <mxPoint x="2060" y="250" as="sourcePoint" />
            <mxPoint x="2220" y="250" as="targetPoint" />
            <Array as="points">
              <mxPoint x="2163" y="250" />
            </Array>
            <mxPoint as="offset" />
          </mxGeometry>
        </mxCell>
        <mxCell id="hHhjy9kQx4CPRr9xOQkH-14" value="6. Return result" style="html=1;verticalAlign=bottom;endArrow=open;dashed=1;endSize=8;curved=0;rounded=0;" edge="1" parent="1" source="tnPLUHbfkHHnk2Zr_GuE-34" target="tnPLUHbfkHHnk2Zr_GuE-31">
          <mxGeometry x="-0.0035" y="-5" relative="1" as="geometry">
            <mxPoint x="2210" y="300" as="sourcePoint" />
            <mxPoint x="2060" y="300" as="targetPoint" />
            <Array as="points">
              <mxPoint x="2135" y="300" />
            </Array>
            <mxPoint as="offset" />
          </mxGeometry>
        </mxCell>
        <mxCell id="hHhjy9kQx4CPRr9xOQkH-15" value="11. Return null" style="html=1;verticalAlign=bottom;endArrow=open;dashed=1;endSize=8;curved=0;rounded=0;" edge="1" parent="1" source="tnPLUHbfkHHnk2Zr_GuE-34" target="tnPLUHbfkHHnk2Zr_GuE-31">
          <mxGeometry x="-0.0035" y="-5" relative="1" as="geometry">
            <mxPoint x="2220" y="470" as="sourcePoint" />
            <mxPoint x="2080" y="470" as="targetPoint" />
            <Array as="points">
              <mxPoint x="2135" y="470" />
            </Array>
            <mxPoint as="offset" />
          </mxGeometry>
        </mxCell>
        <mxCell id="hHhjy9kQx4CPRr9xOQkH-17" value="[Account already exists&lt;span style=&quot;background-color: initial;&quot;&gt;]&lt;/span&gt;" style="text;html=1;align=center;verticalAlign=middle;resizable=0;points=[];autosize=1;strokeColor=none;fillColor=none;" vertex="1" parent="1">
          <mxGeometry x="1120" y="360" width="150" height="30" as="geometry" />
        </mxCell>
        <mxCell id="hHhjy9kQx4CPRr9xOQkH-18" value="[Account does not exist &lt;span style=&quot;background-color: initial;&quot;&gt;]&lt;/span&gt;" style="text;html=1;align=center;verticalAlign=middle;resizable=0;points=[];autosize=1;strokeColor=none;fillColor=none;" vertex="1" parent="1">
          <mxGeometry x="1120" y="510" width="150" height="30" as="geometry" />
        </mxCell>
        <mxCell id="hHhjy9kQx4CPRr9xOQkH-19" value="15. Return success" style="html=1;verticalAlign=bottom;endArrow=open;dashed=1;endSize=8;curved=0;rounded=0;" edge="1" parent="1" source="tnPLUHbfkHHnk2Zr_GuE-34" target="tnPLUHbfkHHnk2Zr_GuE-31">
          <mxGeometry y="-5" relative="1" as="geometry">
            <mxPoint x="2230" y="610" as="sourcePoint" />
            <mxPoint x="2070" y="610" as="targetPoint" />
            <Array as="points">
              <mxPoint x="2135" y="610" />
            </Array>
            <mxPoint as="offset" />
          </mxGeometry>
        </mxCell>
        <mxCell id="hHhjy9kQx4CPRr9xOQkH-22" value="17. save()" style="html=1;verticalAlign=bottom;endArrow=block;curved=0;rounded=0;" edge="1" parent="1" source="tnPLUHbfkHHnk2Zr_GuE-28" target="hHhjy9kQx4CPRr9xOQkH-11">
          <mxGeometry y="9" width="80" relative="1" as="geometry">
            <mxPoint x="1760" y="678.95" as="sourcePoint" />
            <mxPoint x="1880" y="679" as="targetPoint" />
            <Array as="points">
              <mxPoint x="1838" y="678.95" />
            </Array>
            <mxPoint as="offset" />
          </mxGeometry>
        </mxCell>
        <mxCell id="hHhjy9kQx4CPRr9xOQkH-23" value="&lt;div style=&quot;text-align: left;&quot;&gt;18. &lt;span style=&quot;text-wrap: wrap; background-color: rgb(251, 251, 251);&quot;&gt;executeUpdate()&lt;/span&gt;&lt;/div&gt;" style="html=1;verticalAlign=bottom;endArrow=block;curved=0;rounded=0;" edge="1" parent="1" source="hHhjy9kQx4CPRr9xOQkH-11" target="tnPLUHbfkHHnk2Zr_GuE-34">
          <mxGeometry y="10" width="80" relative="1" as="geometry">
            <mxPoint x="1967" y="700" as="sourcePoint" />
            <mxPoint x="2167" y="700" as="targetPoint" />
            <Array as="points">
              <mxPoint x="1930" y="700" />
            </Array>
            <mxPoint as="offset" />
          </mxGeometry>
        </mxCell>
        <mxCell id="hHhjy9kQx4CPRr9xOQkH-11" value="" style="html=1;points=[[0,0,0,0,5],[0,1,0,0,-5],[1,0,0,0,5],[1,1,0,0,-5]];perimeter=orthogonalPerimeter;outlineConnect=0;targetShapes=umlLifeline;portConstraint=eastwest;newEdgeStyle={&quot;curved&quot;:0,&quot;rounded&quot;:0};" vertex="1" parent="1">
          <mxGeometry x="1885" y="180" width="10" height="640" as="geometry" />
        </mxCell>
        <mxCell id="aFTaMZqmk4bRu7Jq4djs-1" value="&lt;div style=&quot;text-align: left;&quot;&gt;13. &lt;span style=&quot;text-wrap: wrap; background-color: rgb(251, 251, 251);&quot;&gt;save()&lt;/span&gt;&lt;/div&gt;" style="html=1;verticalAlign=bottom;endArrow=block;curved=0;rounded=0;" edge="1" parent="1" source="tnPLUHbfkHHnk2Zr_GuE-28" target="tnPLUHbfkHHnk2Zr_GuE-31">
          <mxGeometry y="10" width="80" relative="1" as="geometry">
            <mxPoint x="1765" y="530" as="sourcePoint" />
            <mxPoint x="1880" y="530" as="targetPoint" />
            <Array as="points">
              <mxPoint x="1870" y="540" />
            </Array>
            <mxPoint as="offset" />
          </mxGeometry>
        </mxCell>
        <mxCell id="hHhjy9kQx4CPRr9xOQkH-3" value="16. Return success" style="html=1;verticalAlign=bottom;endArrow=open;dashed=1;endSize=8;curved=0;rounded=0;" edge="1" parent="1" source="tnPLUHbfkHHnk2Zr_GuE-31" target="tnPLUHbfkHHnk2Zr_GuE-28">
          <mxGeometry x="-0.0061" y="-5" relative="1" as="geometry">
            <mxPoint x="1900" y="630" as="sourcePoint" />
            <mxPoint x="1770" y="630" as="targetPoint" />
            <Array as="points">
              <mxPoint x="1870" y="630" />
            </Array>
            <mxPoint as="offset" />
          </mxGeometry>
        </mxCell>
        <mxCell id="tnPLUHbfkHHnk2Zr_GuE-43" value="12. Return null" style="html=1;verticalAlign=bottom;endArrow=open;dashed=1;endSize=8;curved=0;rounded=0;" edge="1" source="tnPLUHbfkHHnk2Zr_GuE-31" target="tnPLUHbfkHHnk2Zr_GuE-28" parent="1">
          <mxGeometry x="-0.0053" y="-5" relative="1" as="geometry">
            <mxPoint x="1880" y="500" as="sourcePoint" />
            <mxPoint x="1755" y="500" as="targetPoint" />
            <Array as="points">
              <mxPoint x="1870" y="490" />
            </Array>
            <mxPoint as="offset" />
          </mxGeometry>
        </mxCell>
        <mxCell id="tnPLUHbfkHHnk2Zr_GuE-41" value="" style="endArrow=none;dashed=1;html=1;dashPattern=1 3;strokeWidth=2;rounded=0;entryX=1.002;entryY=0.254;entryDx=0;entryDy=0;entryPerimeter=0;exitX=0;exitY=0.254;exitDx=0;exitDy=0;exitPerimeter=0;" edge="1" parent="1" source="hHhjy9kQx4CPRr9xOQkH-16" target="hHhjy9kQx4CPRr9xOQkH-16">
          <mxGeometry width="50" height="50" relative="1" as="geometry">
            <mxPoint x="1240" y="430" as="sourcePoint" />
            <mxPoint x="2200" y="430" as="targetPoint" />
          </mxGeometry>
        </mxCell>
        <mxCell id="tnPLUHbfkHHnk2Zr_GuE-37" value="7. Return result" style="html=1;verticalAlign=bottom;endArrow=open;dashed=1;endSize=8;curved=0;rounded=0;" edge="1" source="tnPLUHbfkHHnk2Zr_GuE-31" target="tnPLUHbfkHHnk2Zr_GuE-28" parent="1">
          <mxGeometry x="-0.0035" y="-5" relative="1" as="geometry">
            <mxPoint x="1905.0000000000002" y="340" as="sourcePoint" />
            <mxPoint x="1780" y="340" as="targetPoint" />
            <Array as="points">
              <mxPoint x="1830" y="320" />
            </Array>
            <mxPoint as="offset" />
          </mxGeometry>
        </mxCell>
        <mxCell id="tnPLUHbfkHHnk2Zr_GuE-32" value="&lt;div style=&quot;text-align: left;&quot;&gt;4. &lt;span style=&quot;text-wrap: wrap; background-color: rgb(251, 251, 251);&quot;&gt;findByUsername&lt;/span&gt;&lt;/div&gt;" style="html=1;verticalAlign=bottom;endArrow=block;curved=0;rounded=0;" edge="1" source="tnPLUHbfkHHnk2Zr_GuE-28" target="tnPLUHbfkHHnk2Zr_GuE-31" parent="1">
          <mxGeometry y="9" width="80" relative="1" as="geometry">
            <mxPoint x="1770" y="230" as="sourcePoint" />
            <mxPoint x="1880" y="230" as="targetPoint" />
            <Array as="points">
              <mxPoint x="1858" y="230" />
            </Array>
            <mxPoint as="offset" />
          </mxGeometry>
        </mxCell>
        <mxCell id="hHhjy9kQx4CPRr9xOQkH-16" value="at create account for employee" style="shape=umlFrame;whiteSpace=wrap;html=1;pointerEvents=0;width=80;height=50;" vertex="1" parent="1">
          <mxGeometry x="1120" y="270" width="1220" height="630" as="geometry" />
        </mxCell>
        <mxCell id="hHhjy9kQx4CPRr9xOQkH-24" value="21. Returns&amp;nbsp;&lt;div&gt;&quot;Account created successfully&quot;&lt;/div&gt;" style="html=1;verticalAlign=bottom;endArrow=open;dashed=1;endSize=8;curved=0;rounded=0;" edge="1" parent="1" source="tnPLUHbfkHHnk2Zr_GuE-28" target="tnPLUHbfkHHnk2Zr_GuE-25">
          <mxGeometry x="-0.0035" y="-5" relative="1" as="geometry">
            <mxPoint x="1745" y="800" as="sourcePoint" />
            <mxPoint x="1592" y="800" as="targetPoint" />
            <Array as="points">
              <mxPoint x="1695" y="800" />
            </Array>
            <mxPoint as="offset" />
          </mxGeometry>
        </mxCell>
        <mxCell id="hHhjy9kQx4CPRr9xOQkH-25" value="22. Returns&amp;nbsp;&lt;div&gt;&quot;Account created successfully&quot;&lt;/div&gt;" style="html=1;verticalAlign=bottom;endArrow=open;dashed=1;endSize=8;curved=0;rounded=0;" edge="1" parent="1" source="tnPLUHbfkHHnk2Zr_GuE-25" target="tnPLUHbfkHHnk2Zr_GuE-22">
          <mxGeometry x="-0.0035" y="-5" relative="1" as="geometry">
            <mxPoint x="1568" y="820" as="sourcePoint" />
            <mxPoint x="1415" y="820" as="targetPoint" />
            <Array as="points">
              <mxPoint x="1518" y="820" />
            </Array>
            <mxPoint as="offset" />
          </mxGeometry>
        </mxCell>
        <mxCell id="hHhjy9kQx4CPRr9xOQkH-26" value="23. Display&amp;nbsp;&lt;div&gt;&quot;Account created&amp;nbsp;&lt;/div&gt;&lt;div&gt;successfully&quot;&lt;/div&gt;" style="html=1;verticalAlign=bottom;endArrow=open;dashed=1;endSize=8;curved=0;rounded=0;" edge="1" parent="1" source="tnPLUHbfkHHnk2Zr_GuE-22" target="tnPLUHbfkHHnk2Zr_GuE-20">
          <mxGeometry x="-0.0035" y="-5" relative="1" as="geometry">
            <mxPoint x="1405" y="840" as="sourcePoint" />
            <mxPoint x="1280" y="840" as="targetPoint" />
            <Array as="points">
              <mxPoint x="1341" y="840" />
            </Array>
            <mxPoint as="offset" />
          </mxGeometry>
        </mxCell>
      </root>
    </mxGraphModel>
  </diagram>
</mxfile>
